<?xml version="1.0" encoding="UTF-8" standalone="no"?>
<svg
   xmlns:dc="http://purl.org/dc/elements/1.1/"
   xmlns:cc="http://creativecommons.org/ns#"
   xmlns:rdf="http://www.w3.org/1999/02/22-rdf-syntax-ns#"
   xmlns:svg="http://www.w3.org/2000/svg"
   xmlns="http://www.w3.org/2000/svg"
   xmlns:sodipodi="http://sodipodi.sourceforge.net/DTD/sodipodi-0.dtd"
   xmlns:inkscape="http://www.inkscape.org/namespaces/inkscape"
   clip-rule="evenodd"
   image-rendering="optimizeQuality"
   shape-rendering="geometricPrecision"
   text-rendering="geometricPrecision"
   viewBox="0 0 27.970352 41.999998"
   id="svg3133"
   version="1.1"
   inkscape:version="0.48.4 r9939"
   width="100%"
   height="100%"
   sodipodi:docname="logout.svg"
   style="fill-rule:evenodd">
  <metadata
     id="metadata3154">
    <rdf:RDF>
      <cc:Work
         rdf:about="">
        <dc:format>image/svg+xml</dc:format>
        <dc:type
           rdf:resource="http://purl.org/dc/dcmitype/StillImage" />
      </cc:Work>
    </rdf:RDF>
  </metadata>
  <sodipodi:namedview
     pagecolor="#ffffff"
     bordercolor="#666666"
     borderopacity="1"
     objecttolerance="10"
     gridtolerance="10"
     guidetolerance="10"
     inkscape:pageopacity="0"
     inkscape:pageshadow="2"
     inkscape:window-width="1223"
     inkscape:window-height="1000"
     id="namedview3152"
     showgrid="false"
     inkscape:zoom="15.104"
     inkscape:cx="9.981875"
     inkscape:cy="21.073053"
     inkscape:window-x="57"
     inkscape:window-y="24"
     inkscape:window-maximized="1"
     inkscape:current-layer="svg3133"
     fit-margin-top="6"
     fit-margin-left="0"
     fit-margin-right="0"
     fit-margin-bottom="6"
     showguides="true"
     inkscape:guide-bbox="true">
    <sodipodi:guide
       orientation="1,0"
       position="-12.910487,32.110699"
       id="guide4761" />
  </sodipodi:namedview>
  <defs
     id="defs3135">
    <linearGradient
       gradientUnits="userSpaceOnUse"
       id="a"
       x1="345.552"
       x2="29.997999"
       y1="227.99001"
       y2="227.99001">
      <stop
         offset="0"
         stop-color="#008BFF"
         id="stop3138" />
      <stop
         offset="1"
         stop-color="#0af"
         id="stop3140" />
    </linearGradient>
  </defs>
  <path
     inkscape:connector-curvature="0"
     style="fill:#7d7d7d;fill-opacity:1;stroke:#434242;stroke-width:0.68342078"
     id="path3148"
     d="m 27.355274,20.233801 -4.988971,4.16886 c -0.205027,0.13669 -0.478395,0.20503 -0.751763,0.0684 -0.205026,-0.13669 -0.341711,-0.34172 -0.341711,-0.61508 l 0,-2.73369 -5.809076,0 c -0.341711,0 -0.683421,-0.34171 -0.683421,-0.68342 l 0,-1.36684 c 0,-0.34171 0.34171,-0.68342 0.683421,-0.68342 l 5.809076,0 0,-2.87037 c 0,-0.27337 0.136685,-0.47839 0.341711,-0.61508 0.273368,-0.13668 0.546736,-0.0683 0.751763,0.0684 l 4.988971,4.16886 c 0.205026,0.13669 0.273369,0.34171 0.273369,0.54674 0,0.20503 -0.06834,0.41005 -0.273369,0.54674 z"
     sodipodi:nodetypes="cccscsssscscccsc" />
  <path
     style="fill:none;stroke:#434242;stroke-width:2.05026221;stroke-linecap:butt;stroke-linejoin:round;stroke-miterlimit:4;stroke-opacity:1;stroke-dasharray:none;marker-mid:none"
     d="m 18.060752,23.201251 0,8.44718 -17.035621,0 0,-24.6232997 17.035621,0 0,9.6076997"
     id="path4579"
     inkscape:connector-curvature="0"
     sodipodi:nodetypes="cccccc" />
  <path
     style="fill:#7d7d7d;fill-opacity:1;stroke:#434242;stroke-width:1.0934732;stroke-miterlimit:4;stroke-dasharray:none"
     inkscape:connector-curvature="0"
     id="path3150"
     d="m 9.9963865,9.9141413 -6.7658656,-2.05026 c -0.8201049,-0.20503 -1.5718678,0.68342 -1.5718678,1.57187 L 1.4536269,31.100191 c 0,0.88844 0.7517628,1.36684 1.6402098,1.57186 l 6.6975236,2.73369 c 0.8201047,0.27337 1.5718677,-0.68342 1.5718677,-1.57187 l 0.205026,-22.34786 c 0,-0.88845 -0.751762,-1.43518 -1.5718675,-1.5718697 z"
     sodipodi:nodetypes="ccccccccc" />
</svg>
