<?xml version="1.0" encoding="UTF-8" standalone="no"?>
<!-- Created with Inkscape (http://www.inkscape.org/) -->

<svg
   xmlns:dc="http://purl.org/dc/elements/1.1/"
   xmlns:cc="http://creativecommons.org/ns#"
   xmlns:rdf="http://www.w3.org/1999/02/22-rdf-syntax-ns#"
   xmlns:svg="http://www.w3.org/2000/svg"
   xmlns="http://www.w3.org/2000/svg"
   xmlns:sodipodi="http://sodipodi.sourceforge.net/DTD/sodipodi-0.dtd"
   xmlns:inkscape="http://www.inkscape.org/namespaces/inkscape"
   width="128.05025"
   height="128.67856"
   id="svg2"
   version="1.1"
   inkscape:version="0.48.4 r9939"
   sodipodi:docname="Nuovo documento 1">
  <defs
     id="defs4" />
  <sodipodi:namedview
     id="base"
     pagecolor="#ffffff"
     bordercolor="#666666"
     borderopacity="1.0"
     inkscape:pageopacity="0.0"
     inkscape:pageshadow="2"
     inkscape:zoom="1.4142136"
     inkscape:cx="156.25678"
     inkscape:cy="88.718154"
     inkscape:document-units="px"
     inkscape:current-layer="layer1"
     showgrid="true"
     fit-margin-top="0"
     fit-margin-left="0"
     fit-margin-right="0"
     fit-margin-bottom="0"
     inkscape:window-width="1309"
     inkscape:window-height="744"
     inkscape:window-x="125"
     inkscape:window-y="1048"
     inkscape:window-maximized="1">
    <inkscape:grid
       type="xygrid"
       id="grid2998"
       empspacing="5"
       visible="true"
       enabled="true"
       snapvisiblegridlinesonly="true"
       originx="-289.94975px"
       originy="-692.82144px" />
  </sodipodi:namedview>
  <metadata
     id="metadata7">
    <rdf:RDF>
      <cc:Work
         rdf:about="">
        <dc:format>image/svg+xml</dc:format>
        <dc:type
           rdf:resource="http://purl.org/dc/dcmitype/StillImage" />
        <dc:title></dc:title>
      </cc:Work>
    </rdf:RDF>
  </metadata>
  <g
     inkscape:label="Livello 1"
     inkscape:groupmode="layer"
     id="layer1"
     transform="translate(-289.94975,-230.86218)">
    <path
       style="fill:#434854;fill-opacity:1;stroke:none"
       d="m 346,275.36218 -53.90808,0 c -1.09192,0 -2.09192,1 -2.09192,2 l 0,10.97744 c 0,1.02256 1,2.02256 2,2.02256 l 124.11607,0 c 0.88393,0 1.88393,-1 1.88393,-2 l 0,-11 c 0,-1 -1,-2 -1.92857,-2 l -54.07143,0 0,-13 17,0 c 3,0 4,-4 2,-6 l -24,-24 c -2,-2 -4,-2 -6,0 l -24,24 c -2,2 -1,6 2,6 l 17,0 z"
       id="path2996"
       inkscape:connector-curvature="0"
       sodipodi:nodetypes="ccccccccccccccccccc" />
    <path
       style="fill:#434854;fill-opacity:1;stroke:none"
       d="m 361.94975,315.04074 53.90808,0 c 1.09192,0 2.09192,-1 2.09192,-2 l 0,-10.97744 c 0,-1.02256 -1,-2.02256 -2,-2.02256 l -124.11607,0 c -0.88393,0 -1.88393,1 -1.88393,2 l 0,11 c 0,1 1,2 1.92857,2 l 54.07143,0 0,13 -17,0 c -3,0 -4,4 -2,6 l 24,24 c 2,2 4,2 6,0 l 24,-24 c 2,-2 1,-6 -2,-6 l -17,0 z"
       id="path2996-5"
       inkscape:connector-curvature="0"
       sodipodi:nodetypes="ccccccccccccccccccc" />
  </g>
</svg>
