<!-- Created with Inkscape (http://www.inkscape.org/) -->
<svg xmlns:rdf="http://www.w3.org/1999/02/22-rdf-syntax-ns#" xmlns="http://www.w3.org/2000/svg" height="1120" width="660" version="1.0" xmlns:cc="http://creativecommons.org/ns#" xmlns:xlink="http://www.w3.org/1999/xlink" xmlns:dc="http://purl.org/dc/elements/1.1/">
	<defs>
		<filter id="filter3171">
			<feGaussianBlur stdDeviation="24.270561"/>
		</filter>
		<filter id="filter3494" height="2.613667" width="1.0458246" y="-0.80683345" x="-0.022912372">
			<feGaussianBlur stdDeviation="3.6290387"/>
		</filter>
		<filter id="filter3498" height="1.8675951" width="1.0503566" y="-0.43379757" x="-0.025178287">
			<feGaussianBlur stdDeviation="3.6290387"/>
		</filter>
		<filter id="filter3502" height="2.0263686" width="1.0511764" y="-0.51318437" x="-0.025588209">
			<feGaussianBlur stdDeviation="3.6290387"/>
		</filter>
		<filter id="filter3506" height="2.0256214" width="1.0493604" y="-0.51281071" x="-0.024680221">
			<feGaussianBlur stdDeviation="3.6290387"/>
		</filter>
		<filter id="filter3510" height="1.8901027" width="1.0489504" y="-0.44505137" x="-0.024475198">
			<feGaussianBlur stdDeviation="3.6290387"/>
		</filter>
		<filter id="filter3514" height="1.8325911" width="1.0467902" y="-0.4162955" x="-0.023395153">
			<feGaussianBlur stdDeviation="3.6290387"/>
		</filter>
		<filter id="filter3518" height="2.6261666" width="1.3529186" y="-0.81308329" x="-0.1764593">
			<feGaussianBlur stdDeviation="3.6290387"/>
		</filter>
		<filter id="filter3522" height="2.3775177" width="1.1602226" y="-0.68875891" x="-0.080111273">
			<feGaussianBlur stdDeviation="3.6290387"/>
		</filter>
		<filter id="filter3526" height="2.6255682" width="1.1594508" y="-0.81278408" x="-0.079725415">
			<feGaussianBlur stdDeviation="3.6290387"/>
		</filter>
		<filter id="filter3530" height="2.0116673" width="1.205498" y="-0.50583363" x="-0.10274902">
			<feGaussianBlur stdDeviation="3.6290387"/>
		</filter>
		<filter id="filter3534" height="1.6861677" width="1.0978365" y="-0.34308386" x="-0.048918255">
			<feGaussianBlur stdDeviation="3.6290387"/>
		</filter>
		<filter id="filter3538" height="1.5819805" width="1.0981588" y="-0.29099023" x="-0.049079411">
			<feGaussianBlur stdDeviation="3.6290387"/>
		</filter>
		<filter id="filter3542" height="1.5644302" width="1.0880052" y="-0.28221512" x="-0.044002589">
			<feGaussianBlur stdDeviation="3.6290387"/>
		</filter>
		<filter id="filter3546" height="1.7780435" width="1.1162585" y="-0.38902175" x="-0.058129225">
			<feGaussianBlur stdDeviation="3.6290387"/>
		</filter>
		<filter id="filter3550" height="1.749896" width="1.1159025" y="-0.37494808" x="-0.057951242">
			<feGaussianBlur stdDeviation="3.6290387"/>
		</filter>
		<filter id="filter3554" height="1.7667623" width="1.1303589" y="-0.3833811" x="-0.065179467">
			<feGaussianBlur stdDeviation="3.6290387"/>
		</filter>
		<filter id="filter3558" height="1.2393295" width="1.142771" y="-0.11966468" x="-0.071385525">
			<feGaussianBlur stdDeviation="3.6290387"/>
		</filter>
		<filter id="filter3562">
			<feGaussianBlur stdDeviation="3.6290387"/>
		</filter>
		<filter id="filter3566" height="1.5426724" width="1.0774658" y="-0.2713362" x="-0.038732875">
			<feGaussianBlur stdDeviation="3.6290387"/>
		</filter>
		<filter id="filter3570" height="1.5406698" width="1.0734454" y="-0.27033493" x="-0.03672269">
			<feGaussianBlur stdDeviation="3.6290387"/>
		</filter>
		<filter id="filter3574" height="2.2152092" width="1.0702295" y="-0.60760462" x="-0.035114747">
			<feGaussianBlur stdDeviation="3.6290387"/>
		</filter>
		<filter id="filter3578">
			<feGaussianBlur stdDeviation="3.6290387"/>
		</filter>
		<filter id="filter3296" height="1.6314703" width="1.8641555" y="-0.31573513" x="-0.43207774">
			<feGaussianBlur stdDeviation="2.6316059"/>
		</filter>
		<filter id="filter3300" height="1.579255" width="1.679219" y="-0.28962752" x="-0.3396095">
			<feGaussianBlur stdDeviation="2.6316059"/>
		</filter>
		<filter id="filter3304" height="1.5938725" width="1.6080446" y="-0.29693633" x="-0.30402228">
			<feGaussianBlur stdDeviation="2.6316059"/>
		</filter>
		<filter id="filter3308" height="1.5918044" width="1.8093286" y="-0.29590219" x="-0.40466428">
			<feGaussianBlur stdDeviation="2.6316059"/>
		</filter>
		<linearGradient id="linearGradient3257" y2="1160" gradientUnits="userSpaceOnUse" y1="895" gradientTransform="matrix(0.7310241,0,0,0.7310241,161.88903,215.23485)" x2="607" x1="607">
			<stop stop-color="#686562" offset="0"/>
			<stop stop-color="#53504d" offset="0.188"/>
			<stop stop-color="#8f8c88" offset="0.31"/>
			<stop stop-color="#bebcba" offset="1"/>
		</linearGradient>
		<linearGradient id="linearGradient3271" y2="1020" gradientUnits="userSpaceOnUse" y1="1020" gradientTransform="matrix(0.7310241,0,0,0.7232969,161.88903,221.92154)" x2="630" x1="573">
			<stop stop-color="#9c938b" offset="0"/>
			<stop stop-color="#9c938b" offset="0.15"/>
			<stop stop-color="#eceae9" offset="0.256"/>
			<stop stop-color="#eceae9" offset="0.717"/>
			<stop stop-color="#766c64" offset="1"/>
		</linearGradient>
		<linearGradient id="linearGradient3540" y2="33.3" gradientUnits="userSpaceOnUse" x2="602" gradientTransform="matrix(0.7310241,0,0,0.7310241,161.88903,215.23485)" y1="1160" x1="602">
			<stop stop-color="#1a1a1a" offset="0"/>
			<stop stop-color="#1a1a1a" stop-opacity="0" offset="0.0354"/>
			<stop stop-color="#1a1a1a" stop-opacity="0" offset="1"/>
		</linearGradient>
		<linearGradient id="linearGradient3554" y2="1450" gradientUnits="userSpaceOnUse" x2="793" y1="1450" x1="420">
			<stop stop-color="#f3f0ed" stop-opacity="0.11949685" offset="0"/>
			<stop stop-color="#f3f0ed" stop-opacity="0.49803922" offset="0.5"/>
			<stop stop-color="#f3f0ed" stop-opacity="0" offset="1"/>
		</linearGradient>
		<linearGradient id="linearGradient3573" y2="1340" gradientUnits="userSpaceOnUse" x2="807" gradientTransform="matrix(0.7310241,0,0,0.7310241,161.88903,215.23485)" y1="1340" x1="405">
			<stop stop-color="#7e7d7e" offset="0"/>
			<stop stop-color="#7e7d7e" offset="0.796"/>
			<stop stop-color="#505050" offset="1"/>
		</linearGradient>
		<linearGradient id="linearGradient3582" y2="903" gradientUnits="userSpaceOnUse" x2="694" gradientTransform="matrix(0.7310241,0,0,0.7310241,161.88903,215.23485)" y1="903" x1="518">
			<stop stop-color="#f8f8f8" stop-opacity="0.19496855" offset="0"/>
			<stop stop-color="#f8f8f8" stop-opacity="0.44654089" offset="0.699"/>
			<stop stop-color="#f8f8f8" stop-opacity="0.2389937" offset="1"/>
		</linearGradient>
		<linearGradient id="linearGradient3593" y2="1560" gradientUnits="userSpaceOnUse" x2="610" gradientTransform="matrix(0.7310241,0,0,0.7310241,161.88903,215.23485)" y1="1510" x1="610">
			<stop stop-color="#020202" offset="0"/>
			<stop stop-color="#020202" offset="0.934"/>
			<stop stop-color="#9e9c9a" offset="0.969"/>
			<stop stop-color="#b5a183" offset="1"/>
		</linearGradient>
	</defs>
	<metadata>
		<rdf:RDF>
			<cc:Work rdf:about="">
				<dc:format>image/svg+xml</dc:format>
				<dc:type rdf:resource="http://purl.org/dc/dcmitype/StillImage"/>
				<dc:title/>
				<dc:creator>
					<cc:Agent>
						<dc:title>webmichl</dc:title>
					</cc:Agent>
				</dc:creator>
				<cc:license rdf:resource="http://web.resource.org/cc/PublicDomain"/>
			</cc:Work>
			<cc:License rdf:about="http://web.resource.org/cc/PublicDomain">
				<cc:permits rdf:resource="http://web.resource.org/cc/Reproduction"/>
				<cc:permits rdf:resource="http://web.resource.org/cc/Distribution"/>
				<cc:permits rdf:resource="http://web.resource.org/cc/DerivativeWorks"/>
			</cc:License>
		</rdf:RDF>
	</metadata>
	<g fill-rule="evenodd" transform="translate(-271.94923,-238.09125)">
		<path stroke-linejoin="miter" d="M732,1070l18-10c16-10,35-40,36-60,2-41,8-87,21-117,28-70,124-175,124-331,0-145-142-312-309-314-272-2-347,221-350,329-2,83,44,173,107,281,64,108,30,120,50,172,14,30,30,40,30,40l273,10z" stroke="#666" stroke-linecap="butt" stroke-width="0.73102409px" fill="#b3b3b3"/>
		<path d="M794,1160c20-10,46-80,45-100,0-60,11-119,27-159,37-92,164-229,164-436,0-190-187-410-402-412-351-2.7-448,291-451,433-3,109,56,227,138,369s38,155,64,225c18,40,38,80,38,80s362,10,377,0z" transform="matrix(0.7310241,0,0,0.7310241,161.88903,215.23485)" filter="url(#filter3171)" fill="#FFF"/>
	</g>
	<g transform="translate(-271.94923,-238.09125)">
		<path stroke-linejoin="miter" d="M520,1320s14,20,22,20c8,10,3,10,19,10,15,10,26,10,45,10s22,0,35-10h16l38-40-175,10z" fill-rule="evenodd" stroke="#000" stroke-linecap="butt" stroke-width="0.73102409px" fill="url(#linearGradient3593)"/>
		<path d="M752,1060s-3,10-9,10c-2,0-2,10-2,20s8,10,8,20-9,10-11,10c-2,10,1,10,1,10s9,10,10,20-9,10-12,10c-3,10,3,20,3,20l8,10c0,10-11,10-12,10-1,10-2,20,8,20,2,0,6,0,3,10s-12,10-12,10c0,10,0,10,4,20,5,0,10,0,3,10-6,10-38,40-48,40-19,10-59,10-89,10h-90c-4,0-37-30-41-40s-1-20-2-20c-1-10-3,0-8-10-9,0-1-10,3-10,4-10,7-20,0-20-7-10-10-20-4-20,11-10,8-20,2-20-6-10-6-10-4-20,3-10,11,0,9-10-2-20-3-10-8-20-4-10,2-50,2-50h-2l-1-10-3-10h161,133z" fill-rule="evenodd" fill="url(#linearGradient3573)"/>
		<path d="M569,1170h-6c1,10,4,20,4,20s-8-10-4,10c5,20,8,20,0,20-7,10,18,20,18,20s-119,10-135,10,122,10,133,10-3,0-7,10h54c22,0,8-10-5-10h40c24,0-21-10-34-10-14-10-35-10-10-10h35c0-10,3-40,0-40-4,0,5,0-1-10-7-10-31-10-31-10s25-10,46-10h-97z" fill-rule="evenodd" transform="matrix(0.7310241,0,0,0.7310241,161.88903,215.23485)" filter="url(#filter3578)" fill="#646460"/>
		<path d="M437,1290h95c39-10,61-10,90-10h52c25,0,2-10-30-10-31,10-64,0-90,10h-68c-18,0-50,10-49,10z" fill-rule="evenodd" transform="matrix(0.7310241,0,0,0.7310241,161.88903,215.23485)" filter="url(#filter3574)" fill="#646460"/>
		<path d="M447,1310h85c33-10,53-10,81-10h60c21,10,8,0-13,10-21,0-52,10-43,10h26c-15,10-22,10-54,10-31,0-72,0-43-10h53-92c-20,0-61,0-60-10z" fill-rule="evenodd" transform="matrix(0.7310241,0,0,0.7310241,161.88903,215.23485)" filter="url(#filter3570)" fill="#646460"/>
		<path d="M462,1370l86-10h52c26,0,53-10,69,0h1c-28,0-51,10-46,10,4,0,28,0,21,10h-39c-34,10-87,10-61,0,26,0,88-10,41-10h-124z" fill-rule="evenodd" transform="matrix(0.7310241,0,0,0.7310241,161.88903,215.23485)" filter="url(#filter3566)" fill="#646460"/>
		<path d="M451,1420h88c15,0,25-10,55-10h56c24,10,43,10,50,10s0-10-29,0c-9,0-14,10-9,20,1,10,6,10,9,10,4,10,9,10,11,20,10,20-17,40-38,40h-87c-2,0-31-20-22-40,2-10,6-10,10-20h6c4-10,0-20-2-20-30-10-100-10-98-10z" fill-rule="evenodd" transform="matrix(0.7310241,0,0,0.7310241,161.88903,215.23485)" filter="url(#filter3562)" fill="#646460"/>
		<path d="M613,1180c26,0,68-10,90-10,21,10,28,0,31,10,2,0-1,10-5,20-4,0,6,10,5,30,0,10-43,20-80,10h-19c24-10,25-20,24-30s-11-10-10-10c1-10,12,0,5-10-6-10-40-10-41-10z" fill-rule="evenodd" transform="matrix(0.7310241,0,0,0.7310241,161.88903,215.23485)" filter="url(#filter3558)" fill="#f3f0ed"/>
		<path d="M626,1260s41-10,66,0c25,0,58,0,19,10s-74,10-100,10-17,0,14-10c30,0,17-10,7-10h-6z" fill-rule="evenodd" transform="matrix(0.7310241,0,0,0.7310241,161.88903,215.23485)" filter="url(#filter3554)" fill="#f3f0ed"/>
		<path d="M620,1310h72c35,10,75,10,6,20h-112,52c21-10-16-10-18-20z" fill-rule="evenodd" transform="matrix(0.7310241,0,0,0.7310241,161.88903,215.23485)" filter="url(#filter3550)" fill="#5b5a58"/>
		<path d="M627,1370h65c35,0,109-10,48,0-60,10-95,20-115,20-21,0-12,0,12-10,23-10-10-10-10-10z" fill-rule="evenodd" transform="matrix(0.7310241,0,0,0.7310241,161.88903,215.23485)" filter="url(#filter3546)" fill="#f3f0ed"/>
		<path d="M421,1250l101,10c58,0,143,0,67,10s-161,10-161,10l-7-30z" fill-rule="evenodd" transform="matrix(0.7310241,0,0,0.7310241,161.88903,215.23485)" filter="url(#filter3542)" fill="#938a85"/>
		<path d="M418,1320c7-10,52-10,112,0,60,0,95,10,34,10-62,0-139,10-139,10l-7-20z" fill-rule="evenodd" transform="matrix(0.7310241,0,0,0.7310241,161.88903,215.23485)" filter="url(#filter3538)" fill="#938a85"/>
		<path d="M421,1370s37,10,93,10c56-10,91-10,84-10-6,10-32,20-81,20h-96v-20z" fill-rule="evenodd" transform="matrix(0.7310241,0,0,0.7310241,161.88903,215.23485)" filter="url(#filter3534)" fill="#938a85"/>
		<path d="M642,1280h73c30,0-4,10-39,10-34,10-32,0-34-10z" fill-rule="evenodd" transform="matrix(0.7310241,0,0,0.7310241,161.88903,215.23485)" filter="url(#filter3530)" fill="#f3f0ed"/>
		<path d="M636,1350c9,0,22-10,52-10h57s-24,10-57,10h-52z" fill-rule="evenodd" transform="matrix(0.7310241,0,0,0.7310241,161.88903,215.23485)" filter="url(#filter3526)" fill="#f3f0ed"/>
		<path d="M633,1400c6,0,3-10,45-10s63,10,63,10h-38c-48,10-68,0-70,0z" fill-rule="evenodd" transform="matrix(0.7310241,0,0,0.7310241,161.88903,215.23485)" filter="url(#filter3522)" fill="#f3f0ed"/>
		<path d="M658,1430h38,4s-3,10-24,10-15-10-18-10z" fill-rule="evenodd" transform="matrix(0.7310241,0,0,0.7310241,161.88903,215.23485)" filter="url(#filter3518)" fill="#f3f0ed"/>
		<path stroke-linejoin="miter" d="M426,1450h177c52,0,184-10,184-10" stroke-opacity="0.53271024" transform="matrix(0.7310241,0,0,0.7310241,161.88903,215.23485)" filter="url(#filter3514)" stroke="url(#linearGradient3554)" stroke-linecap="butt" stroke-miterlimit="4" stroke-dasharray="none" stroke-width="11" fill="none"/>
		<path d="M789,1240s2-10-10,0,11,20,11,20l-1-20z" fill-rule="evenodd" fill-opacity="0.25700935" transform="matrix(0.7310241,0,0,0.7310241,161.88903,215.23485)" filter="url(#filter3296)" fill="#e3dcd4"/>
		<path d="M785,1300s-12-10-13,0,19,20,19,20l-6-20z" fill-rule="evenodd" fill-opacity="0.25700935" transform="matrix(0.7310241,0,0,0.7310241,161.88903,215.23485)" filter="url(#filter3300)" fill="#e3dcd4"/>
		<path d="M783,1350s-13-10-16,0,20,20,20,20l-4-20z" fill-rule="evenodd" fill-opacity="0.25700935" transform="matrix(0.7310241,0,0,0.7310241,161.88903,215.23485)" filter="url(#filter3304)" fill="#e3dcd4"/>
		<path d="M780,1400l-9,10c-1,10,16,10,16,10l-7-20z" fill-rule="evenodd" fill-opacity="0.25700935" transform="matrix(0.7310241,0,0,0.7310241,161.88903,215.23485)" filter="url(#filter3308)" fill="#e3dcd4"/>
		<path d="M423,1250l192-10h164s-104,20-158,20c-55,0-198-10-198-10z" fill-rule="evenodd" transform="matrix(0.7310241,0,0,0.7310241,161.88903,215.23485)" filter="url(#filter3510)" fill="#5b5a58"/>
		<path d="M427,1310s147-10,192-10h160c-7,0-44,10-115,10-71,10-239,10-237,0z" fill-rule="evenodd" transform="matrix(0.7310241,0,0,0.7310241,161.88903,215.23485)" filter="url(#filter3506)" fill="#64625c"/>
		<path d="M435,1370s117-10,166-10,174-10,174-10-18,10-82,20h-258z" fill-rule="evenodd" transform="matrix(0.7310241,0,0,0.7310241,161.88903,215.23485)" filter="url(#filter3502)" fill="#64625c"/>
		<path d="M431,1420l181-10c48,0,165-10,165-10s-12,10-79,20c-66,10-270,10-267,0z" fill-rule="evenodd" transform="matrix(0.7310241,0,0,0.7310241,161.88903,215.23485)" filter="url(#filter3498)" fill="#64625c"/>
		<path stroke-linejoin="miter" d="M419,1190s120-10,172-10c53,0,202,10,202,10" transform="matrix(0.7310241,0,0,0.7310241,161.88903,215.23485)" filter="url(#filter3494)" stroke="#4b4b48" stroke-linecap="butt" stroke-miterlimit="4" stroke-dasharray="none" stroke-width="6" fill="none"/>
	</g>
	<g fill-rule="evenodd" transform="translate(-271.94923,-238.09125)">
		<path fill="#96948f" d="M584,707c-1,0,0,89,0,89v8c0,12-27,19-32,17-10-4-11,11-11,24-1,17,9,57,6,64v1c3-2,5-4,7-8,9-16,11-14,3-33-7-19-14-34,5-38,19-5,21-13,41-9,19,4,42,2,46,26,5,23-2,38,4,51,3,4,9,5,11,8-1-5-1-9-2-13-1-20,8-65,3-73-5-7-13,2-31-4-9-4-9-6-9-13-1,0,1-103-4-103-13,0-7,103-17,101-8-1-15-95-20-95z"/>
		<path fill="url(#linearGradient3271)" d="M599,848c-23,0-16,40-18,64-2,21,1,118,2,148,12,10,26,10,39,0,0-20,0-126-1-145-1-22,4-66-21-67h-1z"/>
		<path fill="url(#linearGradient3257)" d="M595,865c-4,0-6,2-9,5-8,9-10,13-17,15-6,2-6,9-20,21-1,0-1,0-1,1v1c0,1,0,1-1,1,0,1,0,2-1,3v1c0,1-1,2-1,3,0,0,0,1-1,1v2,1,2c0-1,0,3-1,8v25c0,13-2,75,3,105h1,11c12,0-13-180,33-151,21,14,21-5,34-6,33-2,27,127,31,157h1,11l1-10c-1-20-1-110-2-122,0-6-1-11-2-16,0-2-1-5-1-7-22-19-10-16-25-22s-2,1-19-8c-12-6-19-10-25-10z"/>
		<path stroke-linejoin="miter" d="M624,686c-13,0-40,3-50,2-12,0-17,7-7,14l1,1c4,1,9,2,14,2h1,2c18,1,23,5,39,2,0-1,1-1,1-1,4-9,16-2,21-11,4-5-8-8-18-9h-4z" stroke="#000" stroke-linecap="butt" stroke-width="0.73102409px" fill="#2c2e2d"/>
		<path stroke-linejoin="miter" d="M546,1060c0-30-3-95-3-109,0-41,0-32,4-45,3-7-7-46-6-63,0-12,1-27,11-24,5,2,32-4,32-17,0-14-1-97-1-97s-9,1-16-3c-10-7-5-14,7-14,12,1,45-3,54-2,10,1,22,4,18,9-5,9-17,2-21,10-2,4,0,78,0,90,1,12-3,16,9,20,18,7,26-2,31,5s-4,51-3,71c1,9,4,20,5,34,1,13,2,125,2,135s-123,0-123,0z" stroke="#808080" stroke-linecap="butt" stroke-width="0.72659367px" fill="url(#linearGradient3582)"/>
		<path d="M584,707c-1,0,0,89,0,89v8c0,12-27,19-32,17-10-4-11,11-11,24-1,17,9,57,6,64v1c3-2,5-4,7-8,9-16,11-14,3-33-7-19-14-34,5-38,19-5,21-13,41-9,19,4,42,2,46,26,5,23-2,38,4,51,3,4,9,5,11,8-1-5-1-9-2-13-1-20,8-65,3-73-5-7-13,2-31-4-9-4-9-6-9-13-1,0,1-103-4-103-13,0-7,103-17,101-8-1-15-95-20-95z" fill="#96948f"/>
	</g>
	<g stroke-linejoin="miter" transform="translate(-271.94923,-238.09125)">
		<path d="M549,911s5-40,6-52,0-20,0-29c0-10,4-5,0-21s-33-93-40-107-34-78-41-92c-6-14-18-40-18-40" stroke="#333" stroke-linecap="round" stroke-miterlimit="4" stroke-dasharray="none" stroke-width="7.31024075" fill="none"/>
		<path d="M657,895c0-3,0-41-1-47-2-6-7-11-7-11s5-14,4-17c0-3-3-9,0-22s24-65,31-80c7-16,26-77,34-93,7-16,20-53,20-53" stroke="#333" stroke-linecap="round" stroke-miterlimit="4" stroke-dasharray="none" stroke-width="7.31024075" fill="none"/>
		<path d="M631,689s8-29,13-50,22-62,22-71c-1-9-9-15-11-4s11,18,11,5c1-14,0-34,0-34" stroke="#000" stroke-linecap="butt" stroke-width="0.73102409px" fill="none"/>
		<path d="M580,695c-1-3-8-22-11-43-4-21-11-43-17-56-5-13-7-18-11-30s2-15,7-3c5,11-2,22-7,9-6-13-10-30-10-30" stroke="#000" stroke-linecap="butt" stroke-width="0.73102409px" fill="none"/>
		<path d="M456,572s11-8,29-9c19-1,20-1,39-1,18,1,11,2,30,0,19-1,29-3,53,2,25,4,27,11,45,9,19-2,21-6,41-7,19-1,40,3,43,5,4,2,4,2,4,2" stroke="#000" stroke-linecap="butt" stroke-width="0.73102409px" fill="none"/>
		<path d="M458,574s-3-5-1-4c1,2,2,3,2,3s-3-5-1-3c1,1,2,3,2,3s-3-5-1-4c1,2,2,3,2,3s-3-5-1-3c2,1,2,3,2,3s-2-6-1-4c2,2,2,3,2,3s-2-5-1-4c2,2,2,4,2,4s-2-6,0-4c1,2,1,3,1,3m1,0s-3-5-1-4c1,2,2,4,2,4s-2-6-1-4,2,3,2,3-2-5-1-4c2,2,2,4,2,4s-2-6-1-4c2,2,2,3,2,3s-2-5,0-3c1,1,1,3,1,3s-1-6,0-4,1,4,1,4m1,0s-2-6-1-4,2,3,2,3-2-5,0-3c1,2,1,3,1,3s-1-6,0-4,1,4,1,4-1-6,0-4,1,4,1,4-1-6,0-4,1,3,1,3m1,0s-1-5,0-3,1,3,1,3-1-6,0-4,1,4,1,4-1-6,0-4,1,4,1,4,0-6,1-4v4m1,0s-1-6,0-4,1,4,1,4-1-6,0-4,1,4,1,4v-4c1,2,1,4,1,4s0-6,1-4,0,3,0,3m1,0s-1-5,0-3,1,3,1,3v-3c1,2,1,3,1,3s0-6,1-3v3s0-6,1-4c1,3,1,4,1,4s-1-6,0-4c1,3,1,4,1,4s0-6,1-4v4s0-6,1-4,0,4,0,4m1,0s-1-6,0-4,1,4,1,4v-4c1,2,1,4,1,4s0-6,1-4v4m1,0s-1-6,0-4,1,4,1,4v-4c1,2,1,4,1,4s0-6,1-4v4s0-6,1-4,0,4,0,4m1,0v-4c1,2,1,4,1,4s0-6,1-4v4s0-6,1-4v4s1-6,1-4c1,2,1,4,1,4v-4c1,2,1,4,1,4s0-6,1-4v4s0-6,1-4,0,4,0,4m1,0v-4c1,2,1,4,1,4s0-6,1-4v4s0-6,1-4,0,4,0,4m1,0v-4c1,2,1,4,1,4s0-6,1-4v4s0-6,1-4v4s1-6,1-4c1,3,0,4,0,4m1,0v-4c1,3,1,4,1,4s0-6,1-4v4s0-6,1-3c1,2,0,3,0,3m1,0v-3c1,2,1,3,1,3s0-6,1-3v3s0-5,1-3v3m0,1s1-6,1-4c1,2,0,4,0,4m1,0s0-6,1-4v4s0-6,1-4v4s1-6,1-4c1,2,0,4,0,4m1,0v-4c1,2,1,4,1,4s0-6,1-4v4s0-6,1-4,1,4,1,4v-4c1,2,1,4,1,4s0-6,1-4v4s0-6,1-4,1,4,1,4-1-6,0-4,1,4,1,4v-4c1,2,1,4,1,4s0-6,1-4v3m1,0s-1-5,0-3,1,3,1,3-1-5,0-3,1,3,1,3,0-6,1-3v3s0-6,1-4,1,4,1,4-1-6,0-4,1,4,1,4v-4c1,2,1,4,1,4s0-6,1-4,0,4,0,4m1,0s-1-6,0-4,1,4,1,4-1-6,0-4,1,4,1,4,0-6,1-4v3m1,0s-1-5,0-3,1,3,1,3-1-5,0-3,1,3,1,3v-4c1,3,1,4,1,4s0-6,1-4,0,4,0,4m1,0s-1-6,0-4,1,4,1,4v-4c1,2,1,4,1,4s0-6,1-4v4m1,0s-1-6,0-4,1,4,1,4v-4c1,2,1,4,1,4s0-6,1-4v4s0-6,1-4,0,4,0,4m1,0v-4c1,2,1,4,1,4v-4c1,2,1,4,1,4s0-6,1-4v4s0-6,1-4,0,4,0,4m1,0v-4c1,2,1,4,1,4s0-6,1-4v4s1-6,1-4c1,2,0,4,0,4s1-6,1-4c1,2,1,4,1,4s0-6,1-4v4s0-6,1-4v4s1-6,1-4c1,3,0,4,0,4m1,0s0-6,1-3v3s0-5,1-3v4s1-6,1-4c1,2,0,4,0,4s1-6,1-4c1,2,0,4,0,4m1,0s0-6,1-4v4s1-6,1-4v4s1-6,1-3c1,2,0,3,0,3s1-5,2-3c0,2-1,4-1,4m1,0s1-6,1-4v4s1-6,1-4v4s1-6,1-4c1,3,0,4,0,4s1-6,2-3v3s1-5,1-3v4s1-6,1-4v4s1-6,2-4c0,3-1,4-1,4s2-6,2-3v3s1-5,1-3v4s1-6,1-4c1,2,0,4,0,4s1-6,2-4c0,3-1,4-1,4s2-5,2-3-1,4-1,4m1,0s1-6,1-4v4s1-6,1-4v4s2-5,2-3-1,4-1,4,2-6,2-4-1,4-1,4,2-6,2-3c0,2-1,3-1,3m1,0s1-5,1-3v4s2-6,2-4c0,3-1,4-1,4s2-5,2-3-1,4-1,4,2-6,2-4c0,3-1,4-1,4s2-5,2-3-1,3-1,3m1,0s2-5,2-3c-1,2-1,4-1,4s2-6,2-3c0,2-1,3-1,3s2-5,2-3-1,4-1,4,2-6,2-4c0,3-1,4-1,4m1,0s1-5,1-3v4s2-6,2-4c0,3-1,4-1,4s2-6,2-3c0,2-1,3-1,3m1,0s1-5,1-3v4s1-6,1-4c1,2,0,4,0,4s1-6,2-4v4s0-6,1-3v3s1-6,1-3c1,2,0,3,0,3m1,0v-3c1,2,1,3,1,3s0-5,1-3v3s0-5,1-3,1,3,1,3-1-6,0-3c1,2,1,3,1,3v-4c1,3,1,4,1,4s0-6,1-4,1,4,1,4-1-6,0-4,1,4,1,4-1-6,0-4,1,4,1,4,0-6,1-4c0,2,1,3,1,3s-1-5,0-3,1,3,1,3-1-6,0-4,1,4,1,4-1-6,0-4,2,4,2,4-1-6,0-4,1,4,1,4-1-6,0-4,1,3,1,3-1-5,0-3c1,1,1,3,1,3m1,0s-2-6-1-4c2,2,2,4,2,4s-1-6,0-4,1,3,1,3-1-5,0-3,1,3,1,3-1-6,0-4,2,4,2,4-2-6-1-4c2,2,2,4,2,4s-1-6,0-4,1,3,1,3-1-5,0-4c1,2,1,4,1,4m1,0s-2-6-1-4,2,4,2,4-2-6,0-4c1,2,1,3,1,3s-1-5,0-3c1,1,1,3,1,3s-1-6,0-4,1,4,1,4-1-6,0-4,2,4,2,4-1-6,0-4,1,3,1,3-1-5,0-3,1,3,1,3-1-6,0-4,1,4,1,4,0-6,1-4v4m1,0s-1-6,0-4,1,4,1,4-1-6,0-4,1,4,1,4v-4c1,2,1,3,1,3s0-5,1-3,1,3,1,3-1-6,0-3c1,2,1,3,1,3v-4c1,3,1,4,1,4s0-6,1-4v4s0-6,1-4,1,4,1,4-1-6,0-4,1,4,1,4,0-6,1-4v4s0-6,1-4v4m1,0s-1-6,0-4,1,4,1,4v-4c1,2,1,4,1,4s0-6,1-4v4s0-6,1-4,0,4,0,4m1,0v-4c1,2,1,4,1,4s0-6,1-4v4s0-6,1-4,0,4,0,4,1-6,1-4c1,2,1,4,1,4s0-6,1-4v4s0-6,1-4v4s1-6,1-3c1,2,0,3,0,3m1,0v-3c1,2,1,3,1,3s0-5,1-3v4s1-6,1-4v4s1-6,1-4c1,2,0,4,0,4m1,0s0-6,1-4v4s1-6,1-4v4s1-6,1-4c1,3,0,4,0,4s1-6,2-3v3s0-5,1-3v4s1-6,1-4v4s1-6,1-4c1,2,0,4,0,4s1-6,2-4v4s1-6,1-3v3s1-5,1-3v4s1-6,2-4c0,2-1,4-1,4s2-6,2-4c0,3-1,4-1,4m1,0s1-6,1-3v3s1-5,1-3v4s2-6,2-4c-1,3-2,4-2,4m1,0s2-5,2-3c-1,2-2,4-2,4m1,0s3-5,2-3-2,3-2,3m1,0s3-5,2-2c-1,2-2,3-2,3s4-5,3-3-2,3-2,3" stroke="#000" stroke-linecap="butt" stroke-width="0.31012848px" fill="none"/>
		<path d="M732,1070l18-10c16-10,35-40,36-60,2-41,8-87,21-117,28-70,124-175,124-331,0-145-142-312-309-314-272-2-347,221-350,329-2,83,44,173,107,281,64,108,30,120,50,172,14,30,30,40,30,40l273,10z" fill-rule="evenodd" stroke="#666" stroke-linecap="butt" stroke-width="0.73102409px" fill="url(#linearGradient3540)"/>
	</g>
</svg>
