<svg xmlns:rdf="http://www.w3.org/1999/02/22-rdf-syntax-ns#" xmlns="http://www.w3.org/2000/svg" height="1120" width="660" version="1.1" xmlns:cc="http://creativecommons.org/ns#" xmlns:xlink="http://www.w3.org/1999/xlink" xmlns:dc="http://purl.org/dc/elements/1.1/">
	<title>Light bulb 70% lit</title>
	<defs>
		<filter id="filter3171">
			<feGaussianBlur stdDeviation="24.270561"/>
		</filter>
		<filter id="filter3494" y="-0.806833" x="-0.022912" width="1.045825" height="2.613667">
			<feGaussianBlur stdDeviation="3.629039"/>
		</filter>
		<filter id="filter3498" y="-0.433798" x="-0.025178" width="1.050357" height="1.867595">
			<feGaussianBlur stdDeviation="3.629039"/>
		</filter>
		<filter id="filter3502" y="-0.513184" x="-0.025588" width="1.051176" height="2.026369">
			<feGaussianBlur stdDeviation="3.629039"/>
		</filter>
		<filter id="filter3506" y="-0.512811" x="-0.02468" width="1.04936" height="2.025621">
			<feGaussianBlur stdDeviation="3.629039"/>
		</filter>
		<filter id="filter3510" y="-0.445051" x="-0.024475" width="1.04895" height="1.890103">
			<feGaussianBlur stdDeviation="3.629039"/>
		</filter>
		<filter id="filter3514" y="-0.416295" x="-0.023395" width="1.04679" height="1.832591">
			<feGaussianBlur stdDeviation="3.629039"/>
		</filter>
		<filter id="filter3518" y="-0.813083" x="-0.176459" width="1.352919" height="2.626167">
			<feGaussianBlur stdDeviation="3.629039"/>
		</filter>
		<filter id="filter3522" y="-0.688759" x="-0.080111" width="1.160223" height="2.377518">
			<feGaussianBlur stdDeviation="3.629039"/>
		</filter>
		<filter id="filter3526" y="-0.812784" x="-0.079725" width="1.159451" height="2.625568">
			<feGaussianBlur stdDeviation="3.629039"/>
		</filter>
		<filter id="filter3530" y="-0.505834" x="-0.102749" width="1.205498" height="2.011667">
			<feGaussianBlur stdDeviation="3.629039"/>
		</filter>
		<filter id="filter3534" y="-0.343084" x="-0.048918" width="1.097837" height="1.686168">
			<feGaussianBlur stdDeviation="3.629039"/>
		</filter>
		<filter id="filter3538" y="-0.29099" x="-0.049079" width="1.098159" height="1.581981">
			<feGaussianBlur stdDeviation="3.629039"/>
		</filter>
		<filter id="filter3542" y="-0.282215" x="-0.044003" width="1.088005" height="1.56443">
			<feGaussianBlur stdDeviation="3.629039"/>
		</filter>
		<filter id="filter3546" y="-0.389022" x="-0.058129" width="1.116259" height="1.778044">
			<feGaussianBlur stdDeviation="3.629039"/>
		</filter>
		<filter id="filter3550" y="-0.374948" x="-0.057951" width="1.115903" height="1.749896">
			<feGaussianBlur stdDeviation="3.629039"/>
		</filter>
		<filter id="filter3554" y="-0.383381" x="-0.065179" width="1.130359" height="1.766762">
			<feGaussianBlur stdDeviation="3.629039"/>
		</filter>
		<filter id="filter3558" y="-0.119665" x="-0.071386" width="1.142771" height="1.239329">
			<feGaussianBlur stdDeviation="3.629039"/>
		</filter>
		<filter id="filter3562">
			<feGaussianBlur stdDeviation="3.629039"/>
		</filter>
		<filter id="filter3566" y="-0.271336" x="-0.038733" width="1.077466" height="1.542672">
			<feGaussianBlur stdDeviation="3.629039"/>
		</filter>
		<filter id="filter3570" y="-0.270335" x="-0.036723" width="1.073445" height="1.54067">
			<feGaussianBlur stdDeviation="3.629039"/>
		</filter>
		<filter id="filter3574" y="-0.607605" x="-0.035115" width="1.070229" height="2.215209">
			<feGaussianBlur stdDeviation="3.629039"/>
		</filter>
		<filter id="filter3578">
			<feGaussianBlur stdDeviation="3.629039"/>
		</filter>
		<filter id="filter3296" y="-0.315735" x="-0.432078" width="1.864156" height="1.63147">
			<feGaussianBlur stdDeviation="2.631606"/>
		</filter>
		<filter id="filter3300" y="-0.289628" x="-0.33961" width="1.679219" height="1.579255">
			<feGaussianBlur stdDeviation="2.631606"/>
		</filter>
		<filter id="filter3304" y="-0.296936" x="-0.304022" width="1.608045" height="1.593873">
			<feGaussianBlur stdDeviation="2.631606"/>
		</filter>
		<filter id="filter3308" y="-0.295902" x="-0.404664" width="1.809329" height="1.591804">
			<feGaussianBlur stdDeviation="2.631606"/>
		</filter>
		<linearGradient id="linearGradient3257" y2="0.979" x2="0.5" y1="0.0213" x1="0.5">
			<stop stop-color="#686562" offset="0"/>
			<stop stop-color="#53504d" offset="0.188"/>
			<stop stop-color="#8f8c88" offset="0.31"/>
			<stop stop-color="#bebcba" offset="1"/>
		</linearGradient>
		<linearGradient id="linearGradient3271" y2="0.525" y1="0.525" x1="-0.000156">
			<stop stop-color="#9c938b" offset="0"/>
			<stop stop-color="#9c938b" offset="0.15"/>
			<stop stop-color="#eceae9" offset="0.256"/>
			<stop stop-color="#eceae9" offset="0.717"/>
			<stop stop-color="#766c64" offset="1"/>
		</linearGradient>
		<linearGradient id="linearGradient3554" y2="0.5" y1="0.5" x2="1.02" x1="-0.0152">
			<stop stop-color="#f3f0ed" stop-opacity="0.119497" offset="0"/>
			<stop stop-color="#f3f0ed" stop-opacity="0.498039" offset="0.5"/>
			<stop stop-color="#f3f0ed" stop-opacity="0" offset="1"/>
		</linearGradient>
		<linearGradient id="linearGradient3573" y2="0.51" y1="0.51" x1="-0.000005">
			<stop stop-color="#7e7d7e" offset="0"/>
			<stop stop-color="#7e7d7e" offset="0.796"/>
			<stop stop-color="#505050" offset="1"/>
		</linearGradient>
		<linearGradient id="linearGradient3582" y2="0.5" y1="0.5" x1="-0.00286">
			<stop stop-color="#f8f8f8" stop-opacity="0.194969" offset="0"/>
			<stop stop-color="#f8f8f8" stop-opacity="0.446541" offset="0.699"/>
			<stop stop-color="#f8f8f8" stop-opacity="0.238994" offset="1"/>
		</linearGradient>
		<linearGradient id="linearGradient3593" y2="0.912" y1="0.0879" x2="0.5" x1="0.5">
			<stop stop-color="#020202" offset="0"/>
			<stop stop-color="#020202" offset="0.934"/>
			<stop stop-color="#9e9c9a" offset="0.969"/>
			<stop stop-color="#b5a183" offset="1"/>
		</linearGradient>
		<radialGradient id="svg_9" r="0.758" spreadMethod="reflect">
			<stop stop-opacity="0.996094" stop-color="#FF0" offset="0.0186"/>
			<stop stop-opacity="0.996094" stop-color="#ff7f00" offset="0.831"/>
		</radialGradient>
	</defs>
	<metadata>image/svg+xmllightbulbwebmichl
		<rdf:RDF>
			<cc:Work rdf:about="">
				<dc:format>image/svg+xml</dc:format>
				<dc:type rdf:resource="http://purl.org/dc/dcmitype/StillImage"/>
				<dc:title>Light bulb 70% lit</dc:title>
			</cc:Work>
		</rdf:RDF>
	</metadata>
	<g>
		<title>Layer 1</title>
		<g display="inline" fill-rule="evenodd">
			<path d="m460,828s6.54,3.27,18.5-3.85c15.4-9.23,35.3-47,35.8-57.7,2.05-45.4,8.22-91.4,20.8-122,28.5-69.5,125-174,125-331-0.00659-145-143-312-310-313-271-2.05-347,221-350,329-1.96,82.6,43.5,173,107,280,63.5,108,30.1,120,49.7,168,13.8,33.8,30.4,48.4,30.4,48.4l272,1.94z" stroke="#666" stroke-width="0.731024px" fill="#b3b3b3"/>
			<path d="m471,827c14.6-8.93,33.1-63.1,33.1-73.5-0.252-43.7,7.76-88,19.6-117,26.9-66.9,118-168,118-319-0.00616-139-135-300-292-301-256-1.97-327,213-330,317-1.85,79.5,41,166,101,270,59.9,104,28.4,115,46.9,162,13.1,32.5,27.9,59.2,27.9,59.2s264,10.3,276,3.43z" filter="url(#filter3171)" stroke-width="0.953059px" fill="#FFF"/>
		</g>
		<g display="inline" fill-rule="evenodd">
			<path d="m248,1080s13.6,16.3,21.7,23.1c8.14,6.79,2.68,7.11,18.6,12,16,4.94,26.2,8.31,45.2,7.71,19-0.605,22.1-4.34,34.8-7.07s16.1-3.86,16.1-3.86l38.7-38.7-175,6.79z" stroke="#000" stroke-width="0.731024px" fill="url(#linearGradient3593)"/>
			<path stroke-width="1px" d="m480,826s-2.49,1.79-8.73,4.4c-1.69,0.706-1.62,11.6-1.54,19.9,0.0698,6.69,8.14,10.7,8.14,21.3s-9.03,6.27-11,13c-1.93,6.77,0.158,11.8,0.158,11.8s9.34,5.11,10.3,12.8c0.967,7.74-8.77,9.11-11.7,14.9-2.9,5.8,2.48,15.7,2.48,15.7s8.77-0.797,8.6,10.3c-0.133,8.7-11.7,9.51-12.7,15.3-0.967,5.8-1.65,13.2,8.4,15.3,2.01,0.427,6.39,2.74,2.85,12.3-2.88,7.8-12.3,6.69-12.3,13.5,0,6.77-0.0528,9.8,4.78,11.7,4.83,1.93,9.56,6.03,2.68,13.2-6.53,6.83-38.5,41-48.4,43.7-18.2,4.87-58.9,6.59-88.9,6.59s-75.2,1.46-90.2-2.56c-3.84-1.03-37-31.9-40.4-38.2-4.47-8.41-0.919-14.5-1.88-20.7-0.901-5.83-3.56-1.35-8.35-5.34-8.94-7.46-0.744-15.7,3.12-17.6,3.87-1.93,6.67-13.4-0.094-20.2-6.77-6.77-9.79-11.7-4.02-17.2,11.4-10.9,7.65-16.3,1.85-23-5.8-6.77-5.74-9.83-3.38-15.4,2.36-5.59,10.1,0.665,8.22-14.1-2-15.3-3.1-4.22-7.85-14.8-3.37-7.48,2.6-46.7,2.6-46.7l-2.27-3.31-1.42-14.2-2.9-2.9s141-7.01,161-5.08c20.3,1.93,135,5.39,133,5.39z" fill="url(#linearGradient3573)"/>
			<path d="m306,830s-4.76-0.68-4.08,6.12c0.681,6.81,2.72,14.3,2.72,14.3s-6.12-9.53-2.72,4.08,5.44,13.6,0,16.3c-5.44,2.72,12.9,15,12.9,15s-87.1,8.85-98.7,8.85,89.1,5.44,97.3,4.76c8.17-0.68-2.04,2.72-5.44,4.76s23.1,4.08,39.5,2.04c16.3-2.04,6.12-6.12-3.4-6.81-9.53-0.68,11.6-0.68,29.3-2.04s-15-8.17-25.2-9.53-25.2-4.76-6.81-4.76,25.2,2.72,25.2-2.72,2.72-24.5,0-26.5c-2.72-2.04,4.08,0.681-0.681-6.81s-22.5-7.49-22.5-7.49,18.4-4.08,33.3-6.12c15-2.04-71.5-2.72-70.8-3.4z" filter="url(#filter3578)" stroke-width="1px" fill="#646460"/>
			<path d="m209,918s40.8,2.04,69.4-0.681,44.9-4.08,66-2.72,19.7,0.68,38.1-0.681,1.36-6.81-21.8-5.44c-23.1,1.36-47-1.36-66,2.04-19.1,3.4-36.7,2.72-49.7,2.72-12.9,0-36.7,5.44-36.1,4.76z" filter="url(#filter3574)" stroke-width="1px" fill="#646460"/>
			<path d="m217,937c2.72,0,37.4-4.76,61.9-5.44s38.8-6.81,59.9-4.76c21.1,2.04,27.9,2.72,43.6,4.08s6.12-0.681-9.53,2.72c-15.7,3.4-38.1,8.17-31.3,8.17,6.81,0,29.9-0.68,19.1,2.04-10.9,2.72-16.3,6.12-39.5,6.12-23.1,0-53.1-2.72-31.3-4.76s63.3-1.36,38.1-4.08-51.7-2.72-66.7-2.04-44.9,0-44.2-2.04z" filter="url(#filter3570)" stroke-width="1px" fill="#646460"/>
			<path d="m227,976l63.3-1.36c17-1.36,18.4-6.81,37.4-6.12,19.1,0.681,39.5-2.04,51,0.681,11.6,2.72,21.1,2.04,0.681,3.4s-37.4,3.4-34,5.44,20.4,4.08,15.7,7.49c-4.76,3.4-3.4,3.4-28.6,4.08-25.2,0.681-64,4.08-44.9-0.681s64.6-8.17,30.6-8.17-85.1-3.4-91.2-4.76z" filter="url(#filter3566)" stroke-width="1px" fill="#646460"/>
			<path d="m219,1010c4.08,0,53.8,0,64.6-0.681,10.9-0.681,18.4-6.8,40.2-6.8s23.1,0.681,40.8,3.4,31.3,1.36,36.7,1.36c5.44,0,0-3.4-21.1,3.4-6.37,2.05-10.3,8.92-7.01,17.2,0.942,2.38,4.79,3.06,7.05,5.59,2.88,3.23,6.1,6.57,7.82,9.96,7.71,15.3-12.2,33.2-27.6,33.4-26.4,0.34-42.1,0.632-63.4,0.748-1.45,0.00806-23.1-15.6-16.6-30.8,1.59-3.72,4.88-9.5,7.55-12.8,1.98-2.43,3.51-2.45,4.39-4.72,2.75-7.14-0.0904-13-1.35-13.2-21.8-3.4-73.5-5.44-72.1-6.12z" filter="url(#filter3562)" stroke-width="1px" fill="#646460"/>
			<path d="m338,837c19.1,0,50.4-6.81,66-1.36,15.7,5.44,20.4-1.36,22.5,2.72,2.04,4.08-0.681,10.9-3.4,12.2-2.72,1.36,4.76,13.6,4.08,22.5-0.681,8.85-32,14.3-58.5,13.6-26.5-0.681-32-1.36-14.3-6.12s18.4-8.85,17.7-17c-0.681-8.17-8.17-8.85-7.49-11.6,0.681-2.72,8.85,0.681,4.08-6.12-4.76-6.81-29.3-8.85-30.6-8.85z" filter="url(#filter3558)" stroke-width="1px" fill="#f3f0ed"/>
			<path d="m347,898s29.9-3.4,48.3,0,42.9,0,14.3,6.81-54.4,8.85-73.5,8.17-12.2-0.68,10.2-5.44c22.5-4.76,12.9-8.17,5.44-8.17-7.49,0-2.72-0.68-4.76-1.36z" filter="url(#filter3554)" stroke-width="1px" fill="#f3f0ed"/>
			<path d="m343,937s26.5-3.4,52.4,0.681,55.1,5.44,4.76,8.85c-50.4,3.4-82.3,6.12-82.3,6.12l38.1-6.81c15.7-6.81-11.6-6.81-12.9-8.85z" filter="url(#filter3550)" stroke-width="1px" fill="#5b5a58"/>
			<path d="m348,979s21.8-2.04,47.6-1.36c25.9,0.681,79.6-3.4,35.4,4.08-44.2,7.49-69.4,8.85-84.4,10.9-15,2.04-8.17,0.68,8.85-5.44s-7.49-6.12-7.49-8.17z" filter="url(#filter3546)" stroke-width="1px" fill="#f3f0ed"/>
			<path d="m198,894s32.1-0.974,74,1.95,104,3.9,48.7,9.74c-55.5,5.84-118,10.7-118,10.7l-4.87-22.4z" filter="url(#filter3542)" stroke-width="1px" fill="#938a85"/>
			<path d="m196,939c4.87-0.974,38-4.87,81.8,0s69.2,8.77,24.4,10.7c-44.8,1.95-101,8.77-101,8.77l-4.87-19.5z" filter="url(#filter3538)" stroke-width="1px" fill="#938a85"/>
			<path d="m198,977s27.3,8.77,68.2,5.84c40.9-2.92,66.2-1.95,61.4-0.974-4.87,0.974-23.4,14.6-59.4,13.6-36-0.974-70.1,0-70.1,0v-18.5z" filter="url(#filter3534)" stroke-width="1px" fill="#938a85"/>
			<path d="m359,916c7.66,0,31.7-6.56,53.6-4.38,21.9,2.19-3.28,10.9-28.4,12-25.2,1.09-24.1-6.56-25.2-7.66z" filter="url(#filter3530)" stroke-width="1px" fill="#f3f0ed"/>
			<path d="m355,961c6.56,0,16.4-2.19,38.3-3.28s41.6-1.09,41.6-1.09-17.5,6.56-41.6,7.66c-24.1,1.09-36.1-3.28-38.3-3.28z" filter="url(#filter3526)" stroke-width="1px" fill="#f3f0ed"/>
			<path d="m353,1000c4.38,0,2.19-4.38,32.8-5.47s45.9,2.19,45.9,2.19,7.66,1.09-27.3,5.47-50.3-3.28-51.4-2.19z" filter="url(#filter3522)" stroke-width="1px" fill="#f3f0ed"/>
			<path d="m371,1020c6.56,0,9.85-2.19,27.3-2.19,17.5,0,3.28,4.38,3.28,4.38s-2.19,2.19-17.5,3.28-10.9-3.28-13.1-5.47z" filter="url(#filter3518)" stroke-width="1px" fill="#f3f0ed"/>
			<path d="m201,1040s91.8,2.51,130,2.51c37.8,0,135-7.25,135-7.25" stroke-opacity="0.53271" filter="url(#filter3514)" stroke="url(#linearGradient3554)" stroke-miterlimit="4" stroke-width="11" fill="none"/>
			<path d="m467,884s1.22-4.84-7.6,1.27,8.14,11.5,8.14,11.5l-0.545-12.8z" fill-opacity="0.257009" filter="url(#filter3296)" stroke-width="1px" fill="#e3dcd4"/>
			<path d="m464,925s-8.5-3.08-9.18,3.71c-0.679,6.79,13.6,11.5,13.6,11.5l-4.39-15.2z" fill-opacity="0.257009" filter="url(#filter3300)" stroke-width="1px" fill="#e3dcd4"/>
			<path d="m462,964s-9.5-3.39-11.5,3.39c-2.04,6.79,15,11.3,15,11.3l-3.48-14.7z" fill-opacity="0.257009" filter="url(#filter3304)" stroke-width="1px" fill="#e3dcd4"/>
			<path d="m460,1000s-4.93-3.75-6.29,3.03c-1.36,6.79,11.3,11.5,11.3,11.5l-5.02-14.6z" fill-opacity="0.257009" filter="url(#filter3308)" stroke-width="1px" fill="#e3dcd4"/>
			<path d="m200,892s110-4.05,140-6.48,120-0.81,120-0.81-76.2,13.8-116,13.8c-39.7,0-144-5.67-144-6.48z" filter="url(#filter3510)" stroke-width="1px" fill="#5b5a58"/>
			<path d="m202,936s108-8.91,140-8.91c32.4,0,123-1.62,118-0.81-5.67,0.81-32.4,9.72-84.3,11.3-51.9,1.62-175,0.81-173-1.62z" filter="url(#filter3506)" stroke-width="1px" fill="#64625c"/>
			<path d="m208,976s85.9-5.67,122-6.48c35.7-0.81,127-4.05,127-4.05s-13,8.91-60,10.5c-47,1.62-191,3.24-189,0z" filter="url(#filter3502)" stroke-width="1px" fill="#64625c"/>
			<path d="m205,1020s97.2-5.67,132-8.91,121-4.86,121-4.86-8.91,2.43-57.5,8.91-198,6.48-195,4.86z" filter="url(#filter3498)" stroke-width="1px" fill="#64625c"/>
			<path d="m196,844s87.5-3.28,126-2.19c38.3,1.09,148,3.28,148,3.28" filter="url(#filter3494)" stroke="#4b4b48" stroke-miterlimit="4" stroke-width="6" fill="none"/>
		</g>
		<g display="inline" fill-rule="evenodd">
			<path stroke-width="1px" d="m312,469c-0.771,0.00775,0.502,89.5-0.31,89.6,0.00256,1.74,0.0221,6.26,0.0229,7.29,0.00977,12.9-27,19-31.5,17.5-10.3-3.58-10.7,11.4-11.1,23.7-0.655,17.2,8.73,57.3,6.47,64.1-0.133,0.406-0.24,0.731-0.366,1.1,2.59-1.71,5.12-4.36,7.24-8.43,8.26-15.8,10.3-13.1,2.76-32.3-7.57-19.3-14.5-34.4,4.82-38.6,19.3-4.13,21.3-12.4,40.6-8.27s42,2.09,46.8,25.5c4.82,23.4-2.74,38.5,4.14,50.9,2.52,4.53,8.04,5.17,10.8,8.64-0.9-4.95-1.76-9.45-2.1-13.6-1.69-20.3,8-65.1,2.7-72.4-5.3-7.29-13.2,1.69-30.5-4.59-9.34-3.41-9.7-6.15-9.32-12.5-1.18-0.215,1.32-103-4-103-13.1,0.296-7.47,103-17.5,101-7.15-1.2-14.7-95.5-19.7-95.4z" fill="#96948f"/>
			<path stroke-width="1px" d="m327,610c-23.4,0.573-16.1,39.9-18.1,64.1-1.77,21,0.503,123,1.62,153,12.5,0.561,26.5,0.532,39.6,0-0.144-27.5-0.702-131-1.3-150-0.689-21.8,4.13-66.1-20.7-66.7-0.387-0.0106-0.771-0.0317-1.14-0.0226z" fill="url(#linearGradient3271)"/>
			<path stroke-width="1px" d="m323,627c-3.21,0.107-5.96,1.47-8.57,4.55-7.57,8.95-9.65,13.1-16.5,15.1-6.89,2.07-6.88,8.95-20.7,20.7-0.36,0.306-0.705,0.627-1.05,0.937-0.0222,0.477-0.0583,0.9-0.114,1.28-0.0253,0.172-0.0587,0.329-0.0914,0.48-0.0371,0.181-0.0655,0.354-0.114,0.503-0.428,1.3-0.795,2.34-1.14,3.27-0.0952,0.256-0.207,0.542-0.297,0.777-0.467,1.23-0.863,2.23-1.19,3.13-0.153,0.427-0.285,0.834-0.411,1.26-0.126,0.422-0.241,0.864-0.343,1.32-0.101,0.461-0.195,0.963-0.274,1.51-0.0796,0.545-0.145,1.13-0.206,1.8,0.681-0.499,0.416,2.63-0.343,8.2-0.0821,5.29-0.0914,12.8-0.0914,24.4,0,13.9-2.14,76.5,3.08,105,0.0537,0.295,0.185,0.568,0.388,0.845,3.02,1.84,6.7,2.44,11.1,1.51,11.8-2.48-13.1-182,33.1-153,20.9,13.4,21.3-5.41,33.7-6.19,33-2.07,27.6,123,31,157,0.0532,0.521,0.422,2.06,0.982,3.97,5.98-1.1,10.2-2.43,11.6-3.97,0.0394-0.665,0.0798-1.3,0.114-2.01,0.0623-1.29,0.156-2.68,0.274-4.13-0.573-23.4-0.993-113-1.6-126-0.274-5.75-1-10.9-1.8-15.7-0.397-2.37-0.793-4.64-1.19-6.81-0.0383-0.0334-0.0757-0.0579-0.114-0.0914-21.3-18.6-9.64-15.8-24.8-22-15.1-6.2-2.07,1.37-19.3-7.58-11.3-5.87-19-10.3-25.2-10.1z" fill="url(#linearGradient3257)"/>
			<path d="m352,448c-12.6-0.043-39.3,2.68-49.8,2.1-11.9-0.663-16.8,7.19-6.56,14.1,0.141,0.0945,0.291,0.185,0.434,0.274,4.68,1.25,9.34,2.18,13.8,2.58,1.15-0.111,1.9-0.228,1.9-0.228v0.366c0.406,0.0222,0.81,0.0564,1.21,0.0685,18.3,0.554,23.7,5.11,39.8,1.48,0.0901-0.623,0.178-1.09,0.297-1.3,4.57-8.19,15.8-1.22,21.7-10.5,3.38-5.34-8.25-7.52-18.3-8.73-1.15-0.138-2.67-0.199-4.48-0.206z" stroke="#000" stroke-width="0.731024px" fill="#2c2e2d"/>
			<path d="m274,823c0-28.7-3.08-95.7-3.08-109,0-41.5-0.072-32,4.29-45.1,2.26-6.8-7.13-46.3-6.47-63.4,0.469-12.2,0.854-26.9,11.2-23.4,4.49,1.54,31.5-4.51,31.5-17.3-0.0106-13.8-0.194-97.5-0.194-97.5s-9.41,1.85-16.1-2.58c-10.2-6.8-5.38-14.6,6.55-13.9,11.9,0.655,45.1-2.98,54.2-1.89,10,1.19,21.7,3.35,18.3,8.62-5.87,9.16-17.2,2.27-21.7,10.4-2.16,3.84,0.665,78.1,0.743,90,0.0804,12.2-3.46,15.6,9,20.1,17.2,6.21,25.2-2.65,30.5,4.55s-4.39,51.4-2.7,71.5c0.755,8.95,4.02,19.5,4.68,33.3,0.663,13.7,1.75,128,1.75,135,0,7.48-122,3.95-122,0.985z" stroke="#808080" stroke-width="0.726594px" fill="url(#linearGradient3582)"/>
			<path stroke-width="1px" d="m312,469c-0.771,0.00775,0.502,89.5-0.31,89.6,0.00256,1.74,0.0221,6.26,0.0229,7.29,0.00977,12.9-27,19-31.5,17.5-10.3-3.58-10.7,11.4-11.1,23.7-0.655,17.2,8.73,57.3,6.47,64.1-0.133,0.406-0.24,0.731-0.366,1.1,2.59-1.71,5.12-4.36,7.24-8.43,8.26-15.8,10.3-13.1,2.76-32.3-7.57-19.3-14.5-34.4,4.82-38.6,19.3-4.13,21.3-12.4,40.6-8.27s42,2.09,46.8,25.5c4.82,23.4-2.74,38.5,4.14,50.9,2.52,4.53,8.04,5.17,10.8,8.64-0.9-4.95-1.76-9.45-2.1-13.6-1.69-20.3,8-65.1,2.7-72.4-5.3-7.29-13.2,1.69-30.5-4.59-9.34-3.41-9.7-6.15-9.32-12.5-1.18-0.215,1.32-103-4-103-13.1,0.296-7.47,103-17.5,101-7.15-1.2-14.7-95.5-19.7-95.4z" fill="#96948f"/>
		</g>
		<g display="inline" fill-rule="evenodd">
			<path d="m277,673s4.47-39.5,5.59-51.8,0-19.4,0-29.1c0-9.69,4.47-4.84,0.373-20.9-4.1-16-33.5-92.8-40.6-107-7.08-14.2-33.9-77.9-40.2-92-6.33-14.2-18.3-39.5-18.3-39.5" stroke="#333" stroke-linecap="round" stroke-miterlimit="4" stroke-width="7.310241" fill="none"/>
			<path d="m385,657c0-3.73,0-41-1.49-47.3-1.49-6.33-6.33-10.8-6.33-10.8s4.47-14.5,4.1-17.1c-0.373-2.61-3.35-9.31-0.373-22s24.6-65.2,31.3-80.5c6.71-15.3,26.1-76.4,33.5-92.4,7.45-16,20.5-53.3,20.5-53.3" stroke="#333" stroke-linecap="round" stroke-miterlimit="4" stroke-width="7.310241" fill="none"/>
			<path d="m359,451s7.85-28.5,13.3-49.6c5.4-21.1,22.6-61.8,21.6-71.2-0.982-9.33-8.84-14.7-10.8-3.93s11.3,18.2,11.8,4.42c0.491-13.7,0-33.4,0-33.4" stroke="#000" stroke-width="0.731024px" fill="none"/>
			<path d="m308,457c-0.982-2.45-7.85-22.1-11.3-42.7-3.44-20.6-11.3-43.2-16.7-56s-7.36-18.2-11.3-29.9c-3.93-11.8,1.96-15.2,6.87-3.44s-1.47,22.6-6.87,9.33-10.3-29.9-10.3-29.9" stroke="#000" stroke-width="0.731024px" fill="none"/>
			<path d="m184,333s10.8-7.85,29-8.84c18.2-0.982,20.1-0.982,38.3-0.491s11.8,1.47,30.4,0c18.7-1.47,28.5-2.95,53,1.47s26.5,11.8,45.2,9.33c18.7-2.45,20.6-5.89,40.3-6.87,19.6-0.982,40.3,2.45,43.7,4.42,3.44,1.96,3.93,2.95,3.93,2.95" stroke="#000" stroke-width="0.731024px" fill="none"/>
			<path d="m186,336s-3.21-4.97-1.54-3.48,2.37,2.94,2.37,2.94m0.138-0.0848s-3.08-5.02-1.41-3.53,2.27,3,2.27,3m0.141-0.0792s-2.88-5.14-1.27-3.59,2.18,3.08,2.18,3.08m0.144-0.0749s-2.72-5.22-1.16-3.62,2.16,3.1,2.16,3.1m0.0615-0.0292s-2.55-5.31-1.04-3.66,2.06,3.17,2.06,3.17m0.146-0.0703s-2.47-5.36-1.01-3.66,1.95,3.23,1.95,3.23m0.148-0.0652s-2.37-5.39-0.916-3.69c1.46,1.7,1.86,3.28,1.86,3.28m0.151-0.06s-2.18-5.47-0.784-3.72c1.39,1.75,1.84,3.3,1.84,3.3m0.151-0.06s-2.08-5.52-0.754-3.72,1.71,3.37,1.71,3.37m0.153-0.0543s-1.97-5.55-0.645-3.75c1.33,1.8,1.71,3.37,1.71,3.37m0.153-0.0543s-1.87-5.59-0.609-3.74,1.58,3.43,1.58,3.43m0.155-0.0483s-1.75-5.62-0.498-3.77c1.26,1.85,1.58,3.43,1.58,3.43m0.155-0.0483s-1.64-5.66-0.459-3.76,1.44,3.49,1.44,3.49m0.157-0.0419s-1.52-5.69-0.342-3.79,1.44,3.49,1.44,3.49m0.157-0.0419s-1.4-5.72-0.303-3.77,1.29,3.55,1.29,3.55m0.158-0.0351s-1.28-5.75-0.179-3.8,1.29,3.55,1.29,3.55m0.158-0.0351s-1.15-5.79-0.141-3.79,1.13,3.61,1.13,3.61m0.16-0.028s-1.02-5.8-0.00824-3.8,1.13,3.61,1.13,3.61m0.16-0.028s-1.02-5.8-0.00827-3.8,0.993,3.64,0.993,3.64m0.161-0.0205s-0.745-5.84,0.169-3.8,0.956,3.66,0.956,3.66m0.161-0.0206s-0.745-5.84,0.169-3.8,0.956,3.66,0.956,3.66m0.161-0.0205s-0.604-5.86,0.211-3.77c0.814,2.08,0.779,3.7,0.779,3.7m0.162-0.0127s-0.462-5.87,0.353-3.79c0.814,2.08,0.779,3.7,0.779,3.7m0.162-0.0128s-0.462-5.87,0.353-3.79c0.814,2.08,0.697,3.71,0.697,3.71m0.162-0.00818s-0.297-5.88,0.459-3.78c0.756,2.11,0.675,3.72,0.675,3.72m0.162-0.00818s-0.297-5.88,0.459-3.78c0.756,2.11,0.675,3.72,0.675,3.72m0.162-0.00818s-0.297-5.88,0.459-3.78c0.756,2.11,0.675,3.72,0.675,3.72m0.162-0.00818s-0.297-5.88,0.459-3.78c0.756,2.11,0.675,3.72,0.675,3.72m0.162-0.00818s-0.297-5.88,0.459-3.78c0.756,2.11,0.675,3.72,0.675,3.72m0.162-0.00818s-0.297-5.88,0.459-3.78c0.756,2.11,0.675,3.72,0.675,3.72m0.162-0.00818s-0.297-5.88,0.459-3.78c0.756,2.11,0.675,3.72,0.675,3.72m0.162-0.00818s-0.297-5.88,0.459-3.78c0.756,2.11,0.675,3.72,0.675,3.72m0.162-0.00818s-0.236-5.89,0.476-3.77c0.711,2.12,0.597,3.73,0.597,3.73m0.162-0.00476s-0.174-5.89,0.538-3.77c0.711,2.12,0.597,3.73,0.597,3.73m0.162-0.00476s-0.174-5.89,0.538-3.77c0.711,2.12,0.597,3.73,0.597,3.73m0.162-0.00476s-0.174-5.89,0.538-3.77c0.711,2.12,0.597,3.73,0.597,3.73m0.162-0.00482s-0.174-5.89,0.538-3.77c0.711,2.12,0.597,3.73,0.597,3.73m0.162-0.00482s-0.174-5.89,0.538-3.77c0.711,2.12,0.597,3.73,0.597,3.73m0.162-0.00482s-0.0731-5.9,0.565-3.76,0.469,3.75,0.469,3.75m0.162,0.000732s0.028-5.89,0.666-3.74c0.638,2.14,0.468,3.75,0.468,3.75m0.162,0.000793s0.0281-5.89,0.666-3.74c0.638,2.14,0.469,3.75,0.469,3.75m0.162,0.000793s0.028-5.89,0.666-3.74c0.638,2.14,0.468,3.75,0.468,3.75m0.162,0.000793s0.028-5.89,0.666-3.74c0.638,2.14,0.468,3.75,0.468,3.75m0.162,0.000732s0.028-5.89,0.666-3.74c0.638,2.14,0.468,3.75,0.468,3.75m0.162,0.000732s0.028-5.89,0.666-3.74c0.638,2.14,0.411,3.76,0.411,3.76m0.162,0.00397s0.143-5.89,0.739-3.73,0.396,3.76,0.396,3.76m0.162,0.00391s0.143-5.89,0.739-3.73,0.396,3.76,0.396,3.76m0.162,0.00391s0.142-5.89,0.739-3.73c0.596,2.16,0.396,3.76,0.396,3.76m0.162,0.00391s0.143-5.89,0.739-3.73,0.396,3.76,0.396,3.76m0.162,0.00391s0.143-5.89,0.739-3.73,0.396,3.76,0.396,3.76m0.162,0.00397s0.143-5.89,0.739-3.73,0.396,3.76,0.396,3.76m0.162,0.00391s0.143-5.89,0.739-3.73,0.396,3.76,0.396,3.76m0.162,0.00391s0.143-5.89,0.739-3.73,0.396,3.76,0.396,3.76m0.162,0.00391s0.174-5.89,0.747-3.73,0.355,3.76,0.355,3.76m0.162,0.00568s0.206-5.89,0.779-3.72c0.573,2.16,0.355,3.76,0.355,3.76m0.162,0.00568s0.206-5.89,0.779-3.72c0.573,2.16,0.355,3.76,0.355,3.76m0.162,0.00562s0.206-5.89,0.779-3.72c0.573,2.16,0.355,3.76,0.355,3.76m0.162,0.00568s0.206-5.89,0.779-3.72c0.573,2.16,0.303,3.77,0.303,3.77m0.162,0.00854s0.31-5.88,0.845-3.71,0.288,3.77,0.288,3.77m0.162,0.00848s0.31-5.88,0.845-3.71,0.288,3.77,0.288,3.77m0.162,0.00854s0.31-5.88,0.845-3.71,0.263,3.77,0.263,3.77m0.162,0.00995s0.361-5.88,0.877-3.7,0.255,3.77,0.255,3.77m0.162,0.01s0.361-5.88,0.877-3.7,0.255,3.77,0.255,3.77m0.162,0.00995s0.361-5.88,0.877-3.7,0.255,3.77,0.255,3.77m0.162,0.00995s0.361-5.88,0.877-3.7,0.386,3.77,0.386,3.77m0.162,0.00275s0.1-5.89,0.712-3.74,0.422,3.76,0.422,3.76m0.162,0.00275s0.1-5.89,0.712-3.74,0.558,3.74,0.558,3.74m0.162-0.00476s-0.171-5.89,0.539-3.76c0.71,2.12,0.595,3.73,0.595,3.73m0.162-0.0047s-0.171-5.89,0.539-3.76c0.71,2.12,0.685,3.73,0.685,3.73m0.162-0.00964s-0.35-5.88,0.424-3.78c0.775,2.1,0.708,3.71,0.708,3.71m0.162-0.00964s-0.35-5.88,0.424-3.78c0.775,2.1,0.708,3.71,0.708,3.71m0.162-0.00964s-0.35-5.88,0.424-3.78c0.775,2.1,0.708,3.71,0.708,3.71m0.162-0.00964s-0.395-5.87,0.412-3.79c0.807,2.09,0.765,3.7,0.765,3.7m0.162-0.0121s-0.44-5.87,0.367-3.79c0.806,2.09,0.765,3.7,0.765,3.7m0.162-0.0121s-0.44-5.87,0.367-3.79c0.806,2.09,0.765,3.7,0.765,3.7m0.162-0.0121s-0.44-5.87,0.367-3.79c0.807,2.09,0.765,3.7,0.765,3.7m0.162-0.0121s-0.44-5.87,0.367-3.79c0.806,2.09,0.779,3.7,0.779,3.7m0.162-0.0129s-0.468-5.87,0.349-3.79,0.783,3.7,0.783,3.7m0.162-0.0129s-0.468-5.87,0.349-3.79,0.783,3.7,0.783,3.7m0.162-0.0129s-0.468-5.87,0.349-3.79,0.783,3.7,0.783,3.7m0.162-0.0129s-0.468-5.87,0.349-3.79,0.783,3.7,0.783,3.7m0.162-0.0129s-0.468-5.87,0.349-3.79,0.783,3.7,0.783,3.7m0.162-0.0129s-0.468-5.87,0.349-3.79,0.783,3.7,0.783,3.7m0.162-0.0129s-0.468-5.87,0.349-3.79,0.783,3.7,0.783,3.7m0.162-0.0129s-0.468-5.87,0.349-3.79,0.783,3.7,0.783,3.7m0.162-0.0129s-0.468-5.87,0.349-3.79,0.783,3.7,0.783,3.7m0.162-0.0129s-0.404-5.89,0.366-3.79,0.701,3.71,0.701,3.71m0.162-0.00928s-0.338-5.88,0.432-3.78,0.701,3.71,0.701,3.71m0.162-0.00928s-0.338-5.88,0.432-3.78,0.701,3.71,0.701,3.71m0.162-0.00934s-0.338-5.88,0.432-3.78,0.701,3.71,0.701,3.71m0.162-0.00928s-0.338-5.88,0.432-3.78,0.701,3.71,0.701,3.71m0.0883-0.00427s-0.191-5.89,0.527-3.77,0.608,3.73,0.608,3.73m0.162-0.00525s-0.191-5.89,0.527-3.77,0.608,3.73,0.608,3.73m0.162-0.00531s-0.129-5.89,0.544-3.76,0.529,3.74,0.529,3.74m0.162-0.00183s-0.0668-5.89,0.606-3.75c0.673,2.13,0.529,3.74,0.529,3.74m0.162-0.00183s0.00208-5.9,0.625-3.75,0.441,3.75,0.441,3.75m0.162,0.00195s0.0709-5.89,0.694-3.74,0.441,3.75,0.441,3.75m0.162,0.00195s0.0709-5.89,0.693-3.74c0.623,2.15,0.368,3.76,0.368,3.76m0.162,0.00598s0.216-5.89,0.786-3.72c0.569,2.16,0.348,3.76,0.348,3.76m0.162,0.00592s0.216-5.89,0.786-3.72c0.569,2.16,0.348,3.76,0.348,3.76m0.162,0.00592s0.29-5.88,0.805-3.71c0.515,2.18,0.254,3.77,0.254,3.77m0.162,0.01s0.364-5.88,0.879-3.7,0.254,3.77,0.254,3.77m0.162,0.01s0.364-5.88,0.879-3.7,0.181,3.77,0.181,3.77m0.161,0.014s0.509-5.87,0.97-3.68,0.161,3.78,0.161,3.78m0.161,0.014s0.509-5.87,0.97-3.68,0.161,3.78,0.161,3.78m0.161,0.014s0.578-5.87,0.988-3.67c0.409,2.2,0.072,3.78,0.072,3.78m0.161,0.0178s0.646-5.85,1.06-3.65c0.409,2.2,0.072,3.78,0.072,3.78m0.161,0.0178s0.647-5.85,1.06-3.65c0.409,2.2,0.072,3.78,0.072,3.78m0.161,0.0178s0.711-5.85,1.07-3.64c0.361,2.21-0.0107,3.78-0.0107,3.78m0.161,0.0214s0.775-5.84,1.14-3.63c0.361,2.21-0.0107,3.78-0.0107,3.78m0.161,0.0213s0.774-5.84,1.14-3.63c0.361,2.21-0.0107,3.78-0.0107,3.78m0.161,0.0213s0.833-5.83,1.15-3.62c0.317,2.22-0.0863,3.78-0.0863,3.78m0.16,0.0245s0.891-5.82,1.21-3.61c0.317,2.22-0.0863,3.78-0.0863,3.78m0.16,0.0246s0.891-5.82,1.21-3.61c0.317,2.22-0.0863,3.78-0.0863,3.78m0.16,0.0245s0.944-5.82,1.22-3.6c0.277,2.22-0.154,3.78-0.154,3.78m0.16,0.0274s0.996-5.8,1.27-3.58c0.277,2.22-0.154,3.78-0.154,3.78m0.16,0.0274s0.996-5.8,1.27-3.58c0.277,2.22-0.154,3.78-0.154,3.78m0.16,0.0274s0.996-5.8,1.27-3.58c0.277,2.22-0.229,3.77-0.229,3.77m0.159,0.0314s1.14-5.78,1.36-3.55c0.221,2.23-0.25,3.77-0.25,3.77m0.159,0.0314s1.14-5.78,1.36-3.55c0.221,2.23-0.25,3.77-0.25,3.77m0.159,0.0315s1.14-5.78,1.36-3.55c0.221,2.23-0.25,3.77-0.25,3.77m0.159,0.0314s1.25-5.76,1.39-3.53c0.142,2.23-0.383,3.76-0.383,3.76m0.158,0.037s1.35-5.73,1.49-3.5c0.142,2.23-0.383,3.76-0.383,3.76m0.158,0.037s1.35-5.73,1.49-3.5c0.142,2.23-0.383,3.76-0.383,3.76m0.158,0.0371s1.45-5.72,1.51-3.48c0.0635,2.24-0.515,3.74-0.515,3.74m0.156,0.0425s1.55-5.68,1.61-3.45c0.0634,2.24-0.515,3.74-0.515,3.74m0.156,0.0425s1.55-5.68,1.61-3.45c0.0635,2.24-0.515,3.74-0.515,3.74m0.0635,0.0175s1.73-5.63,1.72-3.39c-0.00964,2.24-0.637,3.73-0.637,3.73m0.155,0.0476s1.73-5.63,1.72-3.39c-0.00964,2.24-0.637,3.73-0.637,3.73m0.155,0.0477s1.81-5.62,1.74-3.38c-0.0719,2.24-0.74,3.71-0.74,3.71m0.154,0.0519s1.89-5.58,1.82-3.34c-0.072,2.24-0.74,3.71-0.74,3.71m0.154,0.0519s1.89-5.58,1.82-3.34c-0.072,2.24-0.797,3.69-0.797,3.69m0.153,0.055s2-5.54,1.88-3.31c-0.116,2.23-0.814,3.69-0.814,3.69m0.153,0.055s2-5.54,1.88-3.31c-0.116,2.23-0.83,3.68-0.83,3.68m0.152,0.0558s2.03-5.53,1.9-3.29c-0.129,2.23-0.835,3.69-0.835,3.69m0.152,0.0558s2.03-5.53,1.9-3.29c-0.129,2.23-0.835,3.69-0.835,3.69m0.152,0.0558s2.03-5.53,1.9-3.29c-0.129,2.23-0.835,3.69-0.835,3.69m0.152,0.0559s2.03-5.53,1.9-3.29c-0.129,2.23-0.761,3.7-0.761,3.7m0.154,0.0519s1.89-5.58,1.82-3.34c-0.0721,2.24-0.74,3.71-0.74,3.71m0.154,0.0519s1.77-5.59,1.79-3.36c0.0172,2.24-0.592,3.73-0.592,3.73m0.155,0.0458s1.66-5.65,1.68-3.41c0.0172,2.24-0.592,3.73-0.592,3.73m0.156,0.0458s1.5-5.68,1.64-3.45c0.141,2.23-0.385,3.76-0.385,3.76m0.158,0.0371s1.35-5.73,1.49-3.5c0.141,2.23-0.385,3.76-0.385,3.76m0.299,0.0629s1.07-5.79,1.32-3.57-0.0981,3.79-0.0981,3.79m0.16,0.0237s0.862-5.83,1.19-3.61c0.328,2.21,0.0386,3.79,0.0386,3.79m0.161,0.0179s0.651-5.85,1.06-3.65c0.408,2.2,0.176,3.78,0.176,3.78m0.162,0.0121s0.438-5.87,0.925-3.69,0.312,3.77,0.312,3.77m0.162,0.00623s0.227-5.88,0.792-3.72,0.445,3.76,0.445,3.76m0.162,0.00061s0.0213-5.89,0.662-3.75,0.571,3.74,0.571,3.74m0.162-0.00482s-0.175-5.89,0.537-3.77,0.598,3.73,0.598,3.73m0.255-0.0141s-0.361-5.88,0.418-3.78c0.778,2.1,0.715,3.71,0.715,3.71m0.162-0.00995s-0.447-5.87,0.393-3.8,0.824,3.69,0.824,3.69m0.161-0.0146s-0.612-5.85,0.284-3.8,0.924,3.66,0.924,3.66m0.161-0.0191s-0.694-5.85,0.203-3.8c0.896,2.05,0.991,3.65,0.991,3.65m0.161-0.0228s-0.829-5.83,0.114-3.8c0.944,2.03,1.01,3.64,1.01,3.64m0.161-0.0228s-0.829-5.83,0.114-3.8c0.944,2.03,1.01,3.64,1.01,3.64m0.161-0.0228s-0.892-5.82,0.0956-3.81,1.09,3.62,1.09,3.62m0.16-0.0263s-0.957-5.81,0.0311-3.8,1.09,3.62,1.09,3.62m0.16-0.0263s-0.957-5.81,0.0311-3.8,1.15,3.6,1.15,3.6m0.159-0.0298s-1.08-5.79-0.0526-3.8,1.17,3.59,1.17,3.59m0.159-0.0299s-1.08-5.79-0.0526-3.8,1.23,3.58,1.23,3.58m0.159-0.0331s-1.2-5.76-0.132-3.8,1.24,3.57,1.24,3.57m0.159-0.0332s-1.2-5.76-0.132-3.8,1.31,3.54,1.31,3.54m0.158-0.037s-1.35-5.73-0.225-3.8c1.12,1.94,1.33,3.54,1.33,3.54m0.158-0.037s-1.35-5.73-0.225-3.8c1.12,1.94,1.33,3.54,1.33,3.54m0.158-0.037s-1.35-5.73-0.225-3.8c1.12,1.94,1.33,3.54,1.33,3.54m0.195-0.046s-1.42-5.72-0.274-3.79c1.15,1.92,1.38,3.52,1.38,3.52m0.157-0.0391s-1.42-5.72-0.274-3.79c1.15,1.92,1.38,3.52,1.38,3.52m0.157-0.0391s-1.42-5.72-0.274-3.79c1.15,1.92,1.38,3.52,1.38,3.52m0.157-0.0391s-1.37-5.73-0.258-3.79,1.31,3.54,1.31,3.54m0.158-0.0361s-1.31-5.74-0.203-3.8,1.31,3.54,1.31,3.54m0.158-0.0361s-1.31-5.74-0.203-3.8,1.31,3.54,1.31,3.54m0.158-0.0361s-1.22-5.78-0.177-3.8c1.05,1.98,1.2,3.58,1.2,3.58m0.159-0.0311s-1.13-5.78-0.0835-3.8,1.2,3.58,1.2,3.58m0.159-0.0311s-1.05-5.8-0.0598-3.79c0.995,2,1.1,3.62,1.1,3.62m0.16-0.0269s-0.977-5.81,0.0179-3.8c0.995,2,1.1,3.62,1.1,3.62m0.0786-0.0107s-0.813-5.83,0.125-3.8,0.999,3.64,0.999,3.64m0.161-0.0223s-0.813-5.83,0.125-3.8,0.999,3.64,0.999,3.64m0.08-0.00794s-0.651-5.85,0.23-3.8c0.881,2.06,0.897,3.67,0.897,3.67m0.161-0.0179s-0.651-5.85,0.23-3.8c0.881,2.06,0.898,3.67,0.898,3.67m0.161-0.0179s-0.574-5.86,0.253-3.78,0.801,3.69,0.801,3.69m0.162-0.0137s-0.498-5.87,0.329-3.79,0.801,3.69,0.801,3.69m0.161-0.0137s-0.429-5.89,0.349-3.79c0.777,2.1,0.713,3.71,0.713,3.71m0.162-0.00983s-0.358-5.88,0.42-3.78c0.777,2.1,0.713,3.71,0.713,3.71m0.162-0.00983s-0.358-5.88,0.42-3.78c0.777,2.1,0.713,3.71,0.713,3.71m0.162-0.00989s-0.286-5.89,0.44-3.77,0.622,3.73,0.622,3.73m0.162-0.00586s-0.213-5.89,0.512-3.77c0.726,2.12,0.622,3.73,0.622,3.73m0.162-0.00586s-0.213-5.89,0.512-3.77c0.726,2.12,0.622,3.73,0.622,3.73m0.162-0.00586s-0.138-5.89,0.533-3.75c0.671,2.13,0.526,3.74,0.526,3.74m0.162-0.00171s-0.062-5.89,0.609-3.75c0.671,2.13,0.526,3.74,0.526,3.74m0.162-0.00171s-0.0621-5.89,0.609-3.75c0.671,2.13,0.457,3.74,0.457,3.74m0.162,0.00208s0.0765-5.89,0.697-3.74c0.621,2.15,0.438,3.75,0.438,3.75m0.162,0.00214s0.0765-5.89,0.697-3.74c0.621,2.15,0.438,3.75,0.438,3.75m0.162,0.00214s0.0765-5.89,0.697-3.74c0.621,2.15,0.373,3.76,0.373,3.76m0.162,0.00562s0.205-5.89,0.778-3.72c0.574,2.16,0.356,3.76,0.356,3.76m0.162,0.00568s0.205-5.89,0.778-3.72c0.574,2.16,0.356,3.76,0.356,3.76m0.162,0.00562s0.265-5.89,0.795-3.72c0.529,2.17,0.279,3.77,0.279,3.77m0.162,0.00891s0.325-5.88,0.854-3.71,0.279,3.77,0.279,3.77m0.162,0.00891s0.325-5.88,0.854-3.71,0.279,3.77,0.279,3.77m0.162,0.00891s0.382-5.88,0.869-3.7,0.206,3.77,0.206,3.77m0.162,0.0121s0.439-5.87,0.926-3.69,0.206,3.77,0.206,3.77m0.162,0.0121s0.439-5.87,0.926-3.69,0.15,3.77,0.15,3.77m0.161,0.0151s0.55-5.86,0.995-3.67c0.446,2.19,0.134,3.78,0.134,3.78m0.161,0.0151s0.55-5.86,0.995-3.67c0.446,2.19,0.134,3.78,0.134,3.78m0.161,0.0151s0.605-5.87,1.01-3.66c0.405,2.2,0.0641,3.78,0.0641,3.78m0.161,0.0181s0.659-5.85,1.06-3.65c0.405,2.2,0.0641,3.78,0.0641,3.78m0.161,0.0182s0.659-5.85,1.06-3.65c0.405,2.2,0.00848,3.78,0.00848,3.78m0.161,0.0212s0.769-5.84,1.13-3.63c0.363,2.21-0.00726,3.78-0.00726,3.78m0.161,0.0212s0.769-5.84,1.13-3.63c0.363,2.21-0.00726,3.78-0.00726,3.78m0.103,0.0131s0.884-5.82,1.2-3.61c0.32,2.21-0.0819,3.78-0.0819,3.78m0.16,0.0244s0.884-5.82,1.2-3.61c0.32,2.21-0.0819,3.78-0.0819,3.78m0.16,0.0244s0.947-5.82,1.22-3.59c0.272,2.22-0.163,3.78-0.163,3.78m0.16,0.0278s1.01-5.8,1.28-3.58c0.272,2.22-0.163,3.78-0.163,3.78m0.16,0.0278s1.08-5.79,1.3-3.56c0.217,2.23-0.256,3.77-0.256,3.77m0.159,0.0317s1.15-5.78,1.37-3.55c0.217,2.23-0.343,3.76-0.343,3.76m0.158,0.0364s1.32-5.74,1.47-3.51c0.151,2.23-0.368,3.76-0.368,3.76m0.158,0.0364s1.44-5.72,1.5-3.49c0.0624,2.24-0.516,3.74-0.516,3.74m0.156,0.0426s1.72-5.67,1.66-3.43c-0.0688,2.24-0.735,3.71-0.735,3.71m0.154,0.0518s2.09-5.55,1.86-3.32c-0.226,2.23-1.19,3.56-1.19,3.56m0.145,0.0732s2.85-5.17,2.31-3c-0.542,2.17-1.5,3.47-1.5,3.47m0.139,0.0831s3.14-5,2.5-2.85c-0.637,2.14-1.66,3.4-1.66,3.4m0.135,0.0892s3.37-4.84,2.62-2.73c-0.745,2.11-1.97,3.21-1.97,3.21m0.125,0.103s3.92-4.41,2.92-2.42c-1.01,2-2.59,2.7-2.59,2.7" stroke="#000" stroke-width="0.310128px" fill="none"/>
			<path opacity="0.8" d="m460,828s6.54,3.27,18.5-3.85c15.4-9.23,35.3-47,35.8-57.7,2.05-45.4,8.22-91.4,20.8-122,28.5-69.5,125-174,125-331-0.00696-145-143-312-310-313-271-2.05-347,221-350,329-1.96,82.6,43.5,173,107,280,63.5,108,30.1,120,49.7,168,13.8,33.8,30.4,48.4,30.4,48.4" stroke="#666" stroke-width="0.731024px" fill="url(#svg_9)"/>
		</g>
	</g>
</svg>
