<?xml version="1.0" encoding="UTF-8" standalone="no"?>
<svg
   xmlns:dc="http://purl.org/dc/elements/1.1/"
   xmlns:cc="http://creativecommons.org/ns#"
   xmlns:rdf="http://www.w3.org/1999/02/22-rdf-syntax-ns#"
   xmlns:svg="http://www.w3.org/2000/svg"
   xmlns="http://www.w3.org/2000/svg"
   xmlns:xlink="http://www.w3.org/1999/xlink"
   xmlns:sodipodi="http://sodipodi.sourceforge.net/DTD/sodipodi-0.dtd"
   xmlns:inkscape="http://www.inkscape.org/namespaces/inkscape"
   width="659.84521"
   height="1124.22"
   id="svg2"
   version="1.1"
   inkscape:version="0.48.4 r9939"
   sodipodi:docname="lamp_on.svg">
  <sodipodi:namedview
     pagecolor="#ffffff"
     bordercolor="#666666"
     borderopacity="1"
     objecttolerance="10"
     gridtolerance="10"
     guidetolerance="10"
     inkscape:pageopacity="0"
     inkscape:pageshadow="2"
     inkscape:window-width="1309"
     inkscape:window-height="744"
     id="namedview153"
     showgrid="false"
     inkscape:zoom="0.59375284"
     inkscape:cx="527.98336"
     inkscape:cy="794.02655"
     inkscape:window-x="57"
     inkscape:window-y="24"
     inkscape:window-maximized="1"
     inkscape:current-layer="layer2" />
  <title
     id="title4">Light bulb 70% lit</title>
  <defs
     id="defs6">
    <filter
       id="filter3171">
      <feGaussianBlur
         id="feGaussianBlur3173"
         stdDeviation="24.270561" />
    </filter>
    <filter
       height="2.613667"
       x="-0.022912"
       y="-0.806833"
       width="1.045825"
       id="filter3494">
      <feGaussianBlur
         id="feGaussianBlur3496"
         stdDeviation="3.629039" />
    </filter>
    <filter
       height="1.867595"
       x="-0.025178"
       y="-0.433798"
       width="1.050357"
       id="filter3498">
      <feGaussianBlur
         id="feGaussianBlur3500"
         stdDeviation="3.629039" />
    </filter>
    <filter
       height="2.026369"
       x="-0.025588"
       y="-0.513184"
       width="1.051176"
       id="filter3502">
      <feGaussianBlur
         id="feGaussianBlur3504"
         stdDeviation="3.629039" />
    </filter>
    <filter
       height="2.025621"
       x="-0.02468"
       y="-0.512811"
       width="1.04936"
       id="filter3506">
      <feGaussianBlur
         id="feGaussianBlur3508"
         stdDeviation="3.629039" />
    </filter>
    <filter
       height="1.890103"
       x="-0.024475"
       y="-0.445051"
       width="1.04895"
       id="filter3510">
      <feGaussianBlur
         id="feGaussianBlur3512"
         stdDeviation="3.629039" />
    </filter>
    <filter
       height="1.832591"
       x="-0.023395"
       y="-0.416295"
       width="1.04679"
       id="filter3514">
      <feGaussianBlur
         id="feGaussianBlur3516"
         stdDeviation="3.629039" />
    </filter>
    <filter
       height="2.626167"
       x="-0.176459"
       y="-0.813083"
       width="1.352919"
       id="filter3518">
      <feGaussianBlur
         id="feGaussianBlur3520"
         stdDeviation="3.629039" />
    </filter>
    <filter
       height="2.377518"
       x="-0.080111"
       y="-0.688759"
       width="1.160223"
       id="filter3522">
      <feGaussianBlur
         id="feGaussianBlur3524"
         stdDeviation="3.629039" />
    </filter>
    <filter
       height="2.625568"
       x="-0.079725"
       y="-0.812784"
       width="1.159451"
       id="filter3526">
      <feGaussianBlur
         id="feGaussianBlur3528"
         stdDeviation="3.629039" />
    </filter>
    <filter
       height="2.011667"
       x="-0.102749"
       y="-0.505834"
       width="1.205498"
       id="filter3530">
      <feGaussianBlur
         id="feGaussianBlur3532"
         stdDeviation="3.629039" />
    </filter>
    <filter
       height="1.686168"
       x="-0.048918"
       y="-0.343084"
       width="1.097837"
       id="filter3534">
      <feGaussianBlur
         id="feGaussianBlur3536"
         stdDeviation="3.629039" />
    </filter>
    <filter
       height="1.581981"
       x="-0.049079"
       y="-0.29099"
       width="1.098159"
       id="filter3538">
      <feGaussianBlur
         id="feGaussianBlur3540"
         stdDeviation="3.629039" />
    </filter>
    <filter
       height="1.56443"
       x="-0.044003"
       y="-0.282215"
       width="1.088005"
       id="filter3542">
      <feGaussianBlur
         id="feGaussianBlur3544"
         stdDeviation="3.629039" />
    </filter>
    <filter
       height="1.778044"
       x="-0.058129"
       y="-0.389022"
       width="1.116259"
       id="filter3546">
      <feGaussianBlur
         id="feGaussianBlur3548"
         stdDeviation="3.629039" />
    </filter>
    <filter
       height="1.749896"
       x="-0.057951"
       y="-0.374948"
       width="1.115903"
       id="filter3550">
      <feGaussianBlur
         id="feGaussianBlur3552"
         stdDeviation="3.629039" />
    </filter>
    <filter
       height="1.766762"
       x="-0.065179"
       y="-0.383381"
       width="1.130359"
       id="filter3554">
      <feGaussianBlur
         id="feGaussianBlur3556"
         stdDeviation="3.629039" />
    </filter>
    <filter
       height="1.239329"
       x="-0.071386"
       y="-0.119665"
       width="1.142771"
       id="filter3558">
      <feGaussianBlur
         id="feGaussianBlur3560"
         stdDeviation="3.629039" />
    </filter>
    <filter
       id="filter3562">
      <feGaussianBlur
         id="feGaussianBlur3564"
         stdDeviation="3.629039" />
    </filter>
    <filter
       height="1.542672"
       x="-0.038733"
       y="-0.271336"
       width="1.077466"
       id="filter3566">
      <feGaussianBlur
         id="feGaussianBlur3568"
         stdDeviation="3.629039" />
    </filter>
    <filter
       height="1.54067"
       x="-0.036723"
       y="-0.270335"
       width="1.073445"
       id="filter3570">
      <feGaussianBlur
         id="feGaussianBlur3572"
         stdDeviation="3.629039" />
    </filter>
    <filter
       height="2.215209"
       x="-0.035115"
       y="-0.607605"
       width="1.070229"
       id="filter3574">
      <feGaussianBlur
         id="feGaussianBlur3576"
         stdDeviation="3.629039" />
    </filter>
    <filter
       id="filter3578">
      <feGaussianBlur
         id="feGaussianBlur3580"
         stdDeviation="3.629039" />
    </filter>
    <filter
       height="1.63147"
       x="-0.432078"
       y="-0.315735"
       width="1.864156"
       id="filter3296">
      <feGaussianBlur
         id="feGaussianBlur3298"
         stdDeviation="2.631606" />
    </filter>
    <filter
       height="1.579255"
       x="-0.33961"
       y="-0.289628"
       width="1.679219"
       id="filter3300">
      <feGaussianBlur
         id="feGaussianBlur3302"
         stdDeviation="2.631606" />
    </filter>
    <filter
       height="1.593873"
       x="-0.304022"
       y="-0.296936"
       width="1.608045"
       id="filter3304">
      <feGaussianBlur
         id="feGaussianBlur3306"
         stdDeviation="2.631606" />
    </filter>
    <filter
       height="1.591804"
       x="-0.404664"
       y="-0.295902"
       width="1.809329"
       id="filter3308">
      <feGaussianBlur
         id="feGaussianBlur3310"
         stdDeviation="2.631606" />
    </filter>
    <linearGradient
       id="linearGradient3587">
      <stop
         stop-color="#020202"
         id="stop3589"
         offset="0" />
      <stop
         stop-color="#020202"
         offset="0.934385"
         id="stop3595" />
      <stop
         stop-color="#9e9c9a"
         id="stop3597"
         offset="0.968674" />
      <stop
         stop-color="#b5a183"
         id="stop3591"
         offset="1" />
    </linearGradient>
    <linearGradient
       id="linearGradient3576">
      <stop
         stop-color="#f8f8f8"
         stop-opacity="0.194969"
         id="stop3578"
         offset="0" />
      <stop
         stop-color="#f8f8f8"
         stop-opacity="0.446541"
         offset="0.699115"
         id="stop3584" />
      <stop
         stop-color="#f8f8f8"
         stop-opacity="0.238994"
         id="stop3580"
         offset="1" />
    </linearGradient>
    <linearGradient
       id="linearGradient3265">
      <stop
         stop-color="#9c938b"
         id="stop3267"
         offset="0" />
      <stop
         stop-color="#9c938b"
         id="stop3273"
         offset="0.150442" />
      <stop
         stop-color="#eceae9"
         id="stop3275"
         offset="0.255697" />
      <stop
         stop-color="#eceae9"
         id="stop3277"
         offset="0.71677" />
      <stop
         stop-color="#766c64"
         id="stop3269"
         offset="1" />
    </linearGradient>
    <linearGradient
       id="linearGradient3251">
      <stop
         stop-color="#686562"
         id="stop3253"
         offset="0" />
      <stop
         stop-color="#53504d"
         id="stop3259"
         offset="0.18772" />
      <stop
         stop-color="#8f8c88"
         id="stop3261"
         offset="0.309922" />
      <stop
         stop-color="#bebcba"
         id="stop3255"
         offset="1" />
    </linearGradient>
    <linearGradient
       id="linearGradient3304">
      <stop
         stop-color="#f3f0ed"
         stop-opacity="0.119497"
         id="stop3306"
         offset="0" />
      <stop
         stop-color="#f3f0ed"
         stop-opacity="0.498039"
         id="stop3312"
         offset="0.5" />
      <stop
         stop-color="#f3f0ed"
         stop-opacity="0"
         id="stop3308"
         offset="1" />
    </linearGradient>
    <linearGradient
       id="linearGradient3219">
      <stop
         stop-color="#7e7d7e"
         id="stop3221"
         offset="0" />
      <stop
         stop-color="#7e7d7e"
         id="stop3227"
         offset="0.79646" />
      <stop
         stop-color="#505050"
         id="stop3223"
         offset="1" />
    </linearGradient>
    <linearGradient
       y2="653.88444"
       y1="502.58967"
       xlink:href="#linearGradient3251"
       x2="419.22514"
       x1="419.22529"
       id="linearGradient3257"
       gradientTransform="scale(0.7959267,1.2563971)"
       gradientUnits="userSpaceOnUse" />
    <linearGradient
       y2="317.79601"
       y1="317.79601"
       xlink:href="#linearGradient3265"
       x2="798.45994"
       x1="702.87979"
       id="linearGradient3271"
       gradientTransform="scale(0.43903791,2.2777076)"
       gradientUnits="userSpaceOnUse" />
    <linearGradient
       y2="2964.1591"
       x2="169.0287"
       y1="2964.1591"
       x1="63.76478"
       id="linearGradient3554"
       xlink:href="#linearGradient3304"
       gradientTransform="scale(2.8636195,0.3492084)"
       gradientUnits="userSpaceOnUse" />
    <linearGradient
       y2="1010.3548"
       x2="452.85946"
       y1="1010.3548"
       x1="175.46442"
       id="linearGradient3573"
       xlink:href="#linearGradient3219"
       gradientTransform="scale(1.0590696,0.94422499)"
       gradientUnits="userSpaceOnUse" />
    <linearGradient
       y2="370.92433"
       x2="682.60627"
       y1="370.92433"
       x1="460.75239"
       id="linearGradient3582"
       xlink:href="#linearGradient3576"
       gradientTransform="scale(0.58225281,1.717467)"
       gradientUnits="userSpaceOnUse" />
    <linearGradient
       y2="2091.1569"
       x2="179.80052"
       y1="2013.5697"
       x1="179.80052"
       id="linearGradient3593"
       xlink:href="#linearGradient3587"
       gradientTransform="scale(1.8674588,0.53548706)"
       gradientUnits="userSpaceOnUse" />
    <radialGradient
       r="560.4444"
       cy="369.84047"
       cx="369.84048"
       spreadMethod="reflect"
       id="svg_9"
       gradientTransform="scale(0.89206771,1.1209911)"
       fx="369.84048"
       fy="369.84047"
       gradientUnits="userSpaceOnUse">
      <stop
         offset="0.01862"
         stop-opacity="0.996094"
         stop-color="#ffff00"
         id="stop97" />
      <stop
         offset="0.83112"
         stop-opacity="0.996094"
         stop-color="#ff7f00"
         id="stop99" />
    </radialGradient>
  </defs>
  <metadata
     id="metadata7">image/svg+xmllightbulbwebmichl<rdf:RDF>
  <cc:Work
     rdf:about="">
    <dc:format>image/svg+xml</dc:format>
    <dc:type
       rdf:resource="http://purl.org/dc/dcmitype/StillImage" />
    <dc:title>Light bulb 70% lit</dc:title>
  </cc:Work>
</rdf:RDF>
</metadata>
  <g
     style="display:inline"
     id="layer3"
     display="inline">
    <path
       style="fill:#b3b3b3;fill-rule:evenodd;stroke:#666666;stroke-width:0.73102403px"
       inkscape:connector-curvature="0"
       d="m 459.65894,828.05988 c 0,0 6.54095,3.27172 18.45471,-3.84949 15.43719,-9.22754 35.34826,-46.96552 35.83612,-57.74396 2.05395,-45.37878 8.21954,-91.42065 20.79553,-122.05511 C 563.27893,574.90478 659.48688,470.24756 659.47974,313.47125 659.47315,168.94479 516.94232,1.624389 349.9458,0.379577 78.535675,-1.672059 2.997498,221.19672 0.426789,329.27814 -1.5372,411.85138 43.923218,501.97662 107.44138,609.76501 c 63.51815,107.7884 30.06091,119.98395 49.68689,167.95087 13.83126,33.80432 30.37085,48.39966 30.37085,48.39966 l 272.15982,1.94434 z"
       id="path2169" />
    <path
       style="fill:#ffffff;fill-rule:evenodd;stroke-width:0.95305902px;filter:url(#filter3171)"
       inkscape:connector-curvature="0"
       id="path2170"
       d="m 470.50397,826.76709 c 14.64605,-8.92865 33.1492,-63.11401 33.08816,-73.49847 -0.25244,-43.67682 7.75693,-87.99182 19.62509,-117.4773 C 550.1449,568.89179 640.93793,468.15991 640.93115,317.26379 640.92499,178.15811 506.41626,17.113377 348.81882,15.915268 92.684547,13.940579 21.397886,228.45021 18.971884,332.47781 c -1.853449,79.47617 41.048292,166.22113 100.991446,269.96671 59.94316,103.74554 28.36899,115.48376 46.89034,161.65149 13.05282,32.5365 27.93048,59.24096 27.93048,59.24096 0,0 264.41666,10.32062 275.71982,3.43012 z" />
  </g>
  <g
     style="display:inline"
     id="layer6"
     display="inline">
    <path
       inkscape:connector-curvature="0"
       style="fill:url(#linearGradient3593);fill-rule:evenodd;stroke:#000000;stroke-width:0.73102403px"
       d="m 248.23163,1080.9595 c 0,0 13.57165,16.2861 21.71466,23.072 8.143,6.7856 2.67706,7.1052 18.62939,12.0435 15.9524,4.9382 26.17975,8.3139 45.18006,7.7094 19.03912,-0.6054 22.08441,-4.3379 34.80218,-7.0708 12.71771,-2.7326 16.06891,-3.8606 16.06891,-3.8606 l 38.6792,-38.6792 -175.0744,6.7857 z"
       id="path3312" />
    <path
       inkscape:connector-curvature="0"
       style="fill:url(#linearGradient3573);fill-rule:evenodd;stroke-width:1px"
       d="m 479.58252,826.06073 c 0,0 -2.48615,1.78601 -8.73492,4.39722 -1.68909,0.70581 -1.62299,11.56274 -1.53858,19.85925 0.0698,6.6853 8.14002,10.67786 8.14002,21.31433 0,10.6366 -9.03095,6.27039 -10.96491,13.03919 -1.9339,6.76867 0.15839,11.83789 0.15839,11.83789 0,0 9.34131,5.11047 10.30829,12.84619 0.96698,7.73559 -8.76709,9.10681 -11.66797,14.90869 -2.90088,5.80188 2.48498,15.74695 2.48498,15.74695 0,0 8.76703,-0.797 8.59711,10.28515 -0.13348,8.70154 -11.70911,9.51111 -12.67609,15.31299 -0.96698,5.80176 -1.65014,13.2041 8.40394,15.34253 2.00988,0.42749 6.38763,2.73621 2.84808,12.32983 -2.87921,7.80396 -12.27179,6.69275 -12.27179,13.46156 0,6.7687 -0.0528,9.7985 4.78204,11.7323 4.83484,1.934 9.55866,6.032 2.67816,13.2271 -6.53442,6.8333 -38.4765,41.0442 -48.41253,43.7065 -18.18238,4.8721 -58.93195,6.5872 -88.90784,6.5872 -29.97583,0 -75.19879,1.4627 -90.21472,-2.561 -3.8429,-1.0296 -37.02011,-31.8982 -40.37809,-38.2215 -4.46667,-8.4109 -0.91897,-14.4716 -1.88113,-20.6988 -0.901,-5.831 -3.55749,-1.3481 -8.35113,-5.3448 -8.94324,-7.4563 -0.74424,-15.66456 3.12362,-17.5984 3.86783,-1.93396 6.67478,-13.44982 -0.094,-20.21862 -6.76874,-6.76868 -9.79135,-11.68714 -4.01984,-17.22376 11.36469,-10.9021 7.65332,-16.28003 1.85157,-23.04883 -5.80179,-6.76867 -5.73713,-9.82629 -3.3812,-15.41858 2.35593,-5.59216 10.14896,0.66529 8.216,-14.08862 -2.00113,-15.27368 -3.1036,-4.224 -7.85287,-14.76196 -3.37125,-7.48023 2.60214,-46.7013 2.60214,-46.7013 l -2.27383,-3.30517 -1.42405,-14.15296 -2.9009,-2.90087 c 0,0 140.6867,-7.0116 160.99292,-5.07764 20.30621,1.93384 134.69299,5.38794 132.75909,5.38794 z"
       id="path2167" />
    <path
       style="fill:#646460;fill-rule:evenodd;stroke-width:1px;filter:url(#filter3578)"
       inkscape:connector-curvature="0"
       d="m 305.73563,829.66125 c 0,0 -4.76362,-0.68048 -4.0831,6.12464 0.68054,6.80517 2.72207,14.29083 2.72207,14.29083 0,0 -6.12463,-9.52722 -2.72207,4.08313 3.40258,13.61035 5.44415,13.61035 0,16.3324 -5.44412,2.72217 12.92981,14.97137 12.92981,14.97137 0,0 -87.10614,8.84681 -98.67493,8.84681 -11.5688,0 89.1477,5.44403 97.3139,4.76349 8.16623,-0.68049 -2.04153,2.72216 -5.44412,4.76373 -3.40259,2.0415 23.13761,4.08301 39.46997,2.0415 16.3324,-2.0415 6.12467,-6.12469 -3.40255,-6.80523 -9.52726,-0.68049 11.56875,-0.68049 29.26217,-2.04145 17.69348,-1.36102 -14.97134,-8.1662 -25.17907,-9.52722 -10.20777,-1.36114 -25.17911,-4.76373 -6.80518,-4.76373 18.37393,0 25.17911,2.7221 25.17911,-2.72199 0,-5.44421 2.72207,-24.49865 0,-26.54022 -2.72208,-2.0415 4.0831,0.68054 -0.68051,-6.80511 -4.76361,-7.48572 -22.45703,-7.48572 -22.45703,-7.48572 0,0 18.37393,-4.08307 33.34533,-6.12464 14.97135,-2.04156 -71.45431,-2.72204 -70.7738,-3.40259 z"
       id="path3175" />
    <path
       style="fill:#646460;fill-rule:evenodd;stroke-width:1px;filter:url(#filter3574)"
       inkscape:connector-curvature="0"
       d="m 209.10225,918.12848 c 0,0 40.83101,2.04156 69.41273,-0.68054 28.5817,-2.72205 44.91407,-4.08307 66.01014,-2.72205 21.096,1.36096 19.73495,0.68042 38.10894,-0.68054 18.37394,-1.36102 1.36103,-6.80524 -21.77655,-5.44421 -23.13757,1.36114 -46.95568,-1.36103 -66.01013,2.04168 -19.05447,3.40253 -36.74792,2.72205 -49.67775,2.72205 -12.92981,0 -36.74792,5.44409 -36.06738,4.76361 z"
       id="path3177" />
    <path
       style="fill:#646460;fill-rule:evenodd;stroke-width:1px;filter:url(#filter3570)"
       inkscape:connector-curvature="0"
       d="m 216.58794,937.18292 c 2.72206,0 37.42842,-4.76361 61.92704,-5.44415 24.4986,-0.68048 38.78943,-6.80512 59.88547,-4.76361 21.09601,2.04156 27.90119,2.72211 43.5531,4.08313 15.65189,1.36102 6.12464,-0.68054 -9.52728,2.72204 -15.65185,3.40259 -38.10892,8.1662 -31.30374,8.1662 6.80518,0 29.94275,-0.68048 19.05444,2.04157 -10.88824,2.72204 -16.33236,6.12463 -39.46997,6.12463 -23.13757,0 -53.08032,-2.72204 -31.30374,-4.76361 21.77652,-2.04156 63.28806,-1.36102 38.10895,-4.08307 -25.17914,-2.72211 -51.7193,-2.72211 -66.69068,-2.04156 -14.97137,0.68048 -44.91412,0 -44.23359,-2.04157 z"
       id="path3179" />
    <path
       style="fill:#646460;fill-rule:evenodd;stroke-width:1px;filter:url(#filter3566)"
       inkscape:connector-curvature="0"
       d="m 227.4762,975.97229 c 0,0 46.27517,0 63.28808,-1.36102 17.01291,-1.36103 18.37393,-6.80518 37.42844,-6.12464 19.05444,0.68054 39.46994,-2.04156 51.03875,0.68054 11.56879,2.72205 21.09601,2.04151 0.68055,3.40259 -20.41556,1.36103 -37.42847,3.40253 -34.02588,5.44428 3.40259,2.04138 20.41549,4.08294 15.65188,7.48565 -4.76361,3.40241 -3.40258,3.40241 -28.58169,4.08295 -25.17914,0.68054 -63.96863,4.08325 -44.91413,-0.68054 19.05448,-4.76361 64.64911,-8.1662 30.62323,-8.1662 -34.02581,0 -85.06459,-3.4024 -91.18924,-4.76361 z"
       id="path3181" />
    <path
       style="fill:#646460;fill-rule:evenodd;stroke-width:1px;filter:url(#filter3562)"
       inkscape:connector-curvature="0"
       d="m 219.31,1014.7619 c 4.0831,0 53.76086,0 64.64911,-0.6807 10.88827,-0.6805 18.37396,-6.805 40.15048,-6.805 21.77655,0 23.13757,0.6806 40.83102,3.4026 17.69345,2.7219 31.30378,1.3611 36.74793,1.3611 5.44412,0 0,-3.4026 -21.09601,3.4025 -6.37045,2.055 -10.27646,8.9156 -7.00708,17.1854 0.94229,2.3834 4.79034,3.0556 7.04913,5.5912 2.88071,3.2335 6.10428,6.5701 7.81504,9.9573 7.70645,15.2581 -12.2381,33.2186 -27.58243,33.4164 -26.4082,0.3404 -42.11426,0.6317 -63.43839,0.7479 -1.4533,0.01 -23.0589,-15.6403 -16.56823,-30.7731 1.59393,-3.7164 4.87765,-9.4965 7.55377,-12.7836 1.98019,-2.432 3.51138,-2.452 4.3854,-4.7175 2.75464,-7.1401 -0.0904,-12.9822 -1.35495,-13.1798 -21.77658,-3.4026 -73.49583,-5.4442 -72.13479,-6.1247 z"
       id="path3183" />
    <path
       style="fill:#f3f0ed;fill-rule:evenodd;stroke-width:1px;filter:url(#filter3558)"
       inkscape:connector-curvature="0"
       d="m 337.71994,837.14691 c 19.05447,0 50.35825,-6.80511 66.01013,-1.36102 15.65189,5.44415 20.4155,-1.36102 22.45709,2.72211 2.04154,4.08307 -0.68051,10.88824 -3.40261,12.24926 -2.72208,1.36103 4.76361,13.61042 4.08313,22.45716 -0.68052,8.84662 -31.98432,14.29083 -58.52451,13.61029 -26.54013,-0.68061 -31.98425,-1.36109 -14.29083,-6.12464 17.69348,-4.76367 18.37393,-8.84674 17.69348,-17.013 -0.68054,-8.1662 -8.16626,-8.84668 -7.48575,-11.56878 0.68054,-2.72205 8.84671,0.68054 4.0831,-6.12464 -4.76361,-6.80517 -29.26218,-8.84674 -30.62323,-8.84674 z"
       id="path3186" />
    <path
       style="fill:#f3f0ed;fill-rule:evenodd;stroke-width:1px;filter:url(#filter3554)"
       inkscape:connector-curvature="0"
       d="m 347.24716,897.71301 c 0,0 29.94278,-3.40259 48.31671,0 18.37394,3.40247 42.87259,0 14.29087,6.80512 -28.5817,6.80517 -54.44138,8.84674 -73.49582,8.1662 -19.05451,-0.68048 -12.24933,-0.68048 10.20773,-5.44422 22.45706,-4.76349 12.92981,-8.1662 5.44415,-8.1662 -7.48568,0 -2.72207,-0.68048 -4.76364,-1.3609 z"
       id="path3188" />
    <path
       style="fill:#5b5a58;fill-rule:evenodd;stroke-width:1px;filter:url(#filter3550)"
       inkscape:connector-curvature="0"
       d="m 343.16409,937.18292 c 0,0 26.54013,-3.40259 52.39978,0.68054 25.85962,4.08307 55.12189,5.4441 4.76361,8.84668 -50.35824,3.40259 -82.34256,6.12464 -82.34256,6.12464 0,0 22.4571,0 38.10898,-6.80512 15.65192,-6.80517 -11.56878,-6.80517 -12.92981,-8.84674 z"
       id="path3190" />
    <path
       style="fill:#f3f0ed;fill-rule:evenodd;stroke-width:1px;filter:url(#filter3546)"
       inkscape:connector-curvature="0"
       d="m 347.9277,979.37506 c 0,0 21.77652,-2.04156 47.63617,-1.36102 25.85962,0.68054 79.62052,-3.40277 35.38691,4.08294 -44.23362,7.48566 -69.41276,8.84668 -84.38413,10.88843 -14.97134,2.04157 -8.1662,0.68048 8.84671,-5.44415 17.01291,-6.12482 -7.48566,-6.12482 -7.48566,-8.1662 z"
       id="path3192" />
    <path
       style="fill:#938a85;fill-rule:evenodd;stroke-width:1px;filter:url(#filter3542)"
       inkscape:connector-curvature="0"
       d="m 197.76355,893.5094 c 0,0 32.14616,-0.97406 74.03354,1.94824 41.88742,2.92249 104.23148,3.89649 48.7063,9.74127 -55.52515,5.84473 -117.8692,10.71546 -117.8692,10.71546 l -4.87064,-22.40497 z"
       id="path3205" />
    <path
       style="fill:#938a85;fill-rule:evenodd;stroke-width:1px;filter:url(#filter3538)"
       inkscape:connector-curvature="0"
       d="m 195.81529,939.2934 c 4.87064,-0.97425 37.99092,-4.87073 81.82655,0 43.83567,4.8706 69.16294,8.76709 24.35318,10.71527 -44.80981,1.9483 -101.30909,8.76721 -101.30909,8.76721 l -4.87064,-19.48248 z"
       id="path3207" />
    <path
       style="fill:#938a85;fill-rule:evenodd;stroke-width:1px;filter:url(#filter3534)"
       inkscape:connector-curvature="0"
       d="m 197.76355,977.28424 c 0,0 27.27553,8.76715 68.18878,5.84485 40.9133,-2.92249 66.24057,-1.94843 61.36994,-0.9743 -4.87061,0.9743 -23.379,14.61193 -59.4217,13.63781 -36.0426,-0.97412 -70.13702,0 -70.13702,0 l 0,-18.50836 z"
       id="path3209" />
    <path
       style="fill:#f3f0ed;fill-rule:evenodd;stroke-width:1px;filter:url(#filter3530)"
       inkscape:connector-curvature="0"
       d="m 359.26315,915.9494 c 7.65796,0 31.72586,-6.56384 53.60572,-4.37598 21.87988,2.18811 -3.28199,10.93995 -28.44388,12.034 -25.16184,1.094 -24.06784,-6.56396 -25.16184,-7.65802 z"
       id="path3274" />
    <path
       style="fill:#f3f0ed;fill-rule:evenodd;stroke-width:1px;filter:url(#filter3526)"
       inkscape:connector-curvature="0"
       d="m 354.88718,960.80316 c 6.56396,0 16.40991,-2.18799 38.28979,-3.28204 21.87988,-1.09393 41.57178,-1.09393 41.57178,-1.09393 0,0 -17.50391,6.56402 -41.57178,7.65795 -24.06787,1.09406 -36.10181,-3.28198 -38.28979,-3.28198 z"
       id="path3276" />
    <path
       style="fill:#f3f0ed;fill-rule:evenodd;stroke-width:1px;filter:url(#filter3522)"
       inkscape:connector-curvature="0"
       d="m 352.69922,1001.281 c 4.37595,0 2.18796,-4.37597 32.81982,-5.47003 30.63181,-1.09405 45.9477,2.18811 45.9477,2.18811 0,0 7.65799,1.09382 -27.34983,5.46982 -35.00781,4.3759 -50.32373,-3.2819 -51.41769,-2.1879 z"
       id="path3278" />
    <path
       style="fill:#f3f0ed;fill-rule:evenodd;stroke-width:1px;filter:url(#filter3518)"
       inkscape:connector-curvature="0"
       d="m 371.29709,1022.0668 c 6.56396,0 9.84598,-2.1879 27.34985,-2.1879 17.50391,0 3.28199,4.376 3.28199,4.376 0,0 -2.18799,2.1878 -17.50394,3.282 -15.31589,1.094 -10.93991,-3.282 -13.1279,-5.4701 z"
       id="path3280" />
    <path
       inkscape:connector-curvature="0"
       style="fill:none;stroke:url(#linearGradient3554);stroke-width:11;stroke-miterlimit:4;stroke-opacity:0.53271;filter:url(#filter3514)"
       d="m 201.2615,1036.2194 c 0,0 91.77518,2.5122 129.59934,2.5122 37.82413,0 134.50958,-7.2535 134.50958,-7.2535"
       id="path3282"
       stroke-miterlimit="4" />
    <path
       style="fill:#e3dcd4;fill-opacity:0.25700899;fill-rule:evenodd;stroke-width:1px;filter:url(#filter3296)"
       inkscape:connector-curvature="0"
       d="m 466.86874,883.58087 c 0,0 1.22376,-4.83899 -7.59777,1.26825 -8.8216,6.10724 8.14297,11.53595 8.14297,11.53595 l -0.5452,-12.8042 z"
       id="path2254" />
    <path
       style="fill:#e3dcd4;fill-opacity:0.25700899;fill-rule:evenodd;stroke-width:1px;filter:url(#filter3300)"
       inkscape:connector-curvature="0"
       d="m 463.70395,924.56842 c 0,0 -8.50449,-3.07581 -9.18311,3.70996 -0.67858,6.78589 13.57166,11.53595 13.57166,11.53595 l -4.38855,-15.24591 z"
       id="path2256" />
    <path
       style="fill:#e3dcd4;fill-opacity:0.25700899;fill-rule:evenodd;stroke-width:1px;filter:url(#filter3304)"
       inkscape:connector-curvature="0"
       d="m 461.98526,963.56476 c 0,0 -9.50015,-3.39295 -11.53589,3.39288 -2.03577,6.78589 15.01776,11.30786 15.01776,11.30786 l -3.48187,-14.70074 z"
       id="path2258" />
    <path
       style="fill:#e3dcd4;fill-opacity:0.25700899;fill-rule:evenodd;stroke-width:1px;filter:url(#filter3308)"
       inkscape:connector-curvature="0"
       d="m 460.13321,1003.284 c 0,0 -4.93375,-3.75434 -6.29096,3.0316 -1.35714,6.7857 11.3078,11.5357 11.3078,11.5357 l -5.01684,-14.5673 z"
       id="path2260" />
    <path
       style="fill:#5b5a58;fill-rule:evenodd;stroke-width:1px;filter:url(#filter3510)"
       inkscape:connector-curvature="0"
       d="m 199.51535,891.50391 c 0,0 110.21536,-4.05201 140.20041,-6.48328 29.98508,-2.43121 119.94028,-0.81043 119.94028,-0.81043 0,0 -76.17829,13.77692 -115.88825,13.77692 -39.70993,0 -144.25244,-5.67285 -144.25244,-6.48321 z"
       id="path3197" />
    <path
       style="fill:#64625c;fill-rule:evenodd;stroke-width:1px;filter:url(#filter3506)"
       inkscape:connector-curvature="0"
       d="m 201.94656,936.07629 c 0,0 107.78415,-8.91449 140.20044,-8.91449 32.41626,0 123.18189,-1.62085 117.50904,-0.81036 -5.67289,0.81036 -32.41629,9.72485 -84.28232,11.34564 -51.86609,1.62085 -175.04798,0.81049 -173.42716,-1.62079 z"
       id="path3199" />
    <path
       style="fill:#64625c;fill-rule:evenodd;stroke-width:1px;filter:url(#filter3502)"
       inkscape:connector-curvature="0"
       d="m 207.61941,975.78619 c 0,0 85.90317,-5.67279 121.56107,-6.48321 35.6579,-0.81043 127.23392,-4.05206 127.23392,-4.05206 0,0 -12.96652,8.91455 -59.97013,10.53527 -47.00363,1.62085 -191.25608,3.24158 -188.82486,0 z"
       id="path3201" />
    <path
       style="fill:#64625c;fill-rule:evenodd;stroke-width:1px;filter:url(#filter3498)"
       inkscape:connector-curvature="0"
       d="m 205.18819,1017.9273 c 0,0 97.24888,-5.6727 132.09639,-8.9144 34.8475,-3.2415 120.75064,-4.8624 120.75064,-4.8624 0,0 -8.91449,2.4313 -57.53888,8.9145 -48.62445,6.4832 -197.73937,6.4832 -195.30815,4.8623 z"
       id="path3203" />
    <path
       style="fill:none;stroke:#4b4b48;stroke-width:6;stroke-miterlimit:4;filter:url(#filter3494)"
       inkscape:connector-curvature="0"
       d="m 196.25809,843.74579 c 0,0 87.51953,-3.28192 125.80926,-2.18787 38.2898,1.09394 147.68918,3.28192 147.68918,3.28192"
       id="path3272"
       stroke-miterlimit="4" />
  </g>
  <g
     style="display:inline"
     id="layer8"
     display="inline">
    <path
       style="fill:#96948f;fill-rule:evenodd;stroke-width:1px"
       inkscape:connector-curvature="0"
       d="m 311.93677,468.57288 c -0.77069,0.008 0.50171,89.54888 -0.31031,89.59783 0.003,1.73957 0.0221,6.25739 0.0229,7.28736 0.01,12.90613 -26.96643,19.03503 -31.45691,17.47607 -10.29931,-3.57574 -10.67944,11.37867 -11.14813,23.68976 -0.65545,17.21936 8.72785,57.25897 6.46503,64.14734 -0.13342,0.40619 -0.24023,0.73114 -0.36554,1.09656 2.59009,-1.70624 5.11932,-4.3617 7.2417,-8.42963 8.26214,-15.83575 10.33783,-13.06952 2.76422,-32.34784 -7.57361,-19.27826 -14.45813,-34.43042 4.82019,-38.56152 19.27832,-4.13104 21.33923,-12.40076 40.61749,-8.26971 19.27832,4.1311 41.98883,2.08508 46.80841,25.4945 4.81958,23.40931 -2.74011,38.54309 4.14496,50.93628 2.51599,4.52863 8.04224,5.16724 10.841,8.64215 -0.8999,-4.95355 -1.75817,-9.45129 -2.10168,-13.56964 -1.69452,-20.31744 7.99774,-65.08099 2.69568,-72.37134 -5.30213,-7.2904 -13.23584,1.69471 -30.47455,-4.59179 -9.33972,-3.40589 -9.6969,-6.14557 -9.32056,-12.5188 -1.18206,-0.21485 1.31775,-103.302 -4.00097,-103.18207 -13.12836,0.29608 -7.47217,102.60095 -17.50727,100.91772 -7.14776,-1.19891 -14.70404,-95.49346 -19.73565,-95.44323 z"
       id="path2267" />
    <path
       inkscape:connector-curvature="0"
       style="fill:url(#linearGradient3271);fill-rule:evenodd;stroke-width:1px"
       d="m 327.38922,609.73071 c -23.41376,0.57318 -16.10528,39.91577 -18.13855,64.05695 -1.77283,21.04883 0.50348,122.67529 1.62195,152.8418 12.45318,0.56067 26.50421,0.53186 39.61236,0 -0.14367,-27.46619 -0.70159,-131.11609 -1.30212,-150.1294 -0.68854,-21.79944 4.13495,-66.06555 -20.65143,-66.74676 -0.38733,-0.0106 -0.77057,-0.0317 -1.14221,-0.0226 z"
       id="path3263" />
    <path
       inkscape:connector-curvature="0"
       style="fill:url(#linearGradient3257);fill-rule:evenodd;stroke-width:1px"
       d="m 322.63751,627.22961 c -3.20849,0.10724 -5.96325,1.4693 -8.56665,4.54609 -7.57361,8.95062 -9.65429,13.08038 -16.53943,15.14587 -6.88513,2.06555 -6.88122,8.94678 -20.65142,20.65143 -0.35999,0.30597 -0.7049,0.62726 -1.05085,0.93664 -0.0222,0.4765 -0.0583,0.90003 -0.11425,1.2793 -0.0253,0.17163 -0.0587,0.3291 -0.0914,0.47974 -0.0371,0.18072 -0.0655,0.35424 -0.1142,0.50256 -0.42798,1.30273 -0.79535,2.33514 -1.14221,3.26679 -0.0952,0.25573 -0.20746,0.54217 -0.297,0.77667 -0.46747,1.23407 -0.86334,2.22564 -1.18793,3.1297 -0.15326,0.42682 -0.28534,0.83441 -0.41119,1.25647 -0.12586,0.42205 -0.24133,0.86358 -0.34265,1.32495 -0.10132,0.46142 -0.19452,0.96295 -0.27417,1.50775 -0.0796,0.54486 -0.14478,1.13232 -0.20557,1.80475 0.68121,-0.49872 0.41632,2.62903 -0.34265,8.20117 -0.0821,5.29053 -0.0914,12.84882 -0.0914,24.37512 0,13.91803 -2.13544,76.48719 3.08404,105.10755 0.0537,0.29455 0.18512,0.56811 0.38837,0.84521 3.0166,1.83923 6.69733,2.44483 11.14807,1.50781 11.76636,-2.47753 -13.07422,-182.45861 33.05603,-152.85266 20.89203,13.40833 21.27332,-5.41302 33.71845,-6.19085 33.04858,-2.06556 27.55743,123.22747 31,156.96454 0.0532,0.52099 0.42181,2.0592 0.98236,3.97497 5.9765,-1.09582 10.16669,-2.42615 11.58215,-3.97497 0.0394,-0.66456 0.0798,-1.29981 0.1142,-2.01026 0.0623,-1.28906 0.15564,-2.68127 0.27417,-4.13476 -0.57324,-23.35682 -0.99262,-113.43305 -1.59912,-126.17029 -0.27368,-5.7472 -1.00427,-10.92707 -1.80475,-15.69416 -0.39734,-2.36645 -0.79328,-4.64355 -1.18793,-6.80767 -0.0383,-0.0334 -0.0757,-0.0579 -0.1142,-0.0914 -21.34381,-18.58979 -9.63903,-15.8255 -24.78625,-22.0221 -15.14728,-6.19665 -2.06799,1.36627 -19.28082,-7.58441 -11.29584,-5.87384 -19.02643,-10.25629 -25.1518,-10.05158 z"
       id="path3243" />
    <path
       style="fill:#2c2e2d;fill-rule:evenodd;stroke:#000000;stroke-width:0.73102403px"
       inkscape:connector-curvature="0"
       d="m 351.69574,447.99164 c -12.64325,-0.043 -39.31677,2.68158 -49.75531,2.10168 -11.92975,-0.66272 -16.78705,7.19354 -6.5564,14.07227 0.14057,0.0945 0.2912,0.18518 0.43409,0.27411 4.68188,1.25305 9.34472,2.185 13.75238,2.58142 1.15264,-0.11121 1.89605,-0.22846 1.89605,-0.22846 0,0 0,0.36322 0,0.36554 0.40576,0.0222 0.81037,0.0564 1.21076,0.0685 18.28576,0.55407 23.66424,5.10626 39.77227,1.48486 0.0901,-0.62299 0.17792,-1.08844 0.297,-1.30212 4.56586,-8.1944 15.83618,-1.21503 21.70227,-10.48566 3.38043,-5.34229 -8.25372,-7.52167 -18.27557,-8.72656 -1.14569,-0.13776 -2.67139,-0.19947 -4.47754,-0.20563 z"
       id="path3283" />
    <path
       inkscape:connector-curvature="0"
       style="fill:url(#linearGradient3582);fill-rule:evenodd;stroke:#808080;stroke-width:0.72659397px"
       d="m 274.30035,822.638 c 0,-28.73975 -3.07959,-95.72955 -3.07959,-109.47888 0,-41.52735 -0.072,-31.97541 4.29151,-45.09711 2.26288,-6.80487 -7.12946,-46.34619 -6.474,-63.35693 0.46869,-12.16187 0.854,-26.94385 11.15369,-23.41144 4.4906,1.5401 31.46856,-4.5116 31.4588,-17.26135 -0.0106,-13.77649 -0.19416,-97.47559 -0.19416,-97.47559 0,0 -9.40649,1.84503 -16.06768,-2.57916 -10.23102,-6.79529 -5.3758,-14.55616 6.55438,-13.90143 11.93017,0.65472 45.05542,-2.98017 54.22101,-1.8916 10.02215,1.1903 21.67779,3.34631 18.29724,8.62384 -5.86634,9.15832 -17.15204,2.26831 -21.71802,10.3634 -2.16406,3.83667 0.66534,78.112 0.74316,89.96942 0.0804,12.24811 -3.46454,15.57336 9.00452,20.06519 17.23932,6.21032 25.19275,-2.6518 30.49506,4.55023 5.3023,7.20203 -4.39283,51.42041 -2.69825,71.4917 0.75531,8.94647 4.01691,19.54889 4.67969,33.29828 0.66278,13.74933 1.75403,127.62439 1.75403,135.10644 0,7.48218 -122.42139,3.95362 -122.42139,0.98499 z"
       id="path3314" />
    <path
       style="fill:#96948f;fill-rule:evenodd;stroke-width:1px"
       inkscape:connector-curvature="0"
       id="path3285"
       d="m 311.93677,468.57288 c -0.77069,0.008 0.50171,89.54888 -0.31031,89.59783 0.003,1.73957 0.0221,6.25739 0.0229,7.28736 0.01,12.90613 -26.96643,19.03503 -31.45691,17.47607 -10.29931,-3.57574 -10.67944,11.37867 -11.14813,23.68976 -0.65545,17.21936 8.72785,57.25897 6.46503,64.14734 -0.13342,0.40619 -0.24023,0.73114 -0.36554,1.09656 2.59009,-1.70624 5.11932,-4.3617 7.2417,-8.42963 8.26214,-15.83575 10.33783,-13.06952 2.76422,-32.34784 -7.57361,-19.27826 -14.45813,-34.43042 4.82019,-38.56152 19.27832,-4.13104 21.33923,-12.40076 40.61749,-8.26971 19.27832,4.1311 41.98883,2.08508 46.80841,25.4945 4.81958,23.40931 -2.74011,38.54309 4.14496,50.93628 2.51599,4.52863 8.04224,5.16724 10.841,8.64215 -0.8999,-4.95355 -1.75817,-9.45129 -2.10168,-13.56964 -1.69452,-20.31744 7.99774,-65.08099 2.69568,-72.37134 -5.30213,-7.2904 -13.23584,1.69471 -30.47455,-4.59179 -9.33972,-3.40589 -9.6969,-6.14557 -9.32056,-12.5188 -1.18206,-0.21485 1.31775,-103.302 -4.00097,-103.18207 -13.12836,0.29608 -7.47217,102.60095 -17.50727,100.91772 -7.14776,-1.19891 -14.70404,-95.49346 -19.73565,-95.44323 z" />
  </g>
  <g
     style="display:inline"
     id="layer2"
     display="inline">
    <path
       style="fill:none;stroke:#333333;stroke-width:7.31024122;stroke-linecap:round;stroke-miterlimit:4"
       inkscape:connector-curvature="0"
       d="m 277.39105,672.52692 c 0,0 4.47058,-39.49018 5.5882,-51.78431 1.11767,-12.29412 0,-19.37255 0,-29.05883 0,-9.68628 4.47064,-4.84314 0.37256,-20.8628 -4.09803,-16.01959 -33.52942,-92.76477 -40.60785,-106.92163 -7.07843,-14.15686 -33.90198,-77.86279 -40.23532,-92.01965 -6.33335,-14.15686 -18.25492,-39.49023 -18.25492,-39.49023"
       id="path3297"
       stroke-miterlimit="4" />
    <path
       style="fill:none;stroke:#333333;stroke-width:7.31024122;stroke-linecap:round;stroke-miterlimit:4"
       inkscape:connector-curvature="0"
       d="m 385.0578,657.25244 c 0,-3.72552 0,-40.98041 -1.49023,-47.31378 -1.49018,-6.33331 -6.33332,-10.8039 -6.33332,-10.8039 0,0 4.47058,-14.52941 4.09803,-17.13726 -0.37256,-2.60785 -3.35291,-9.31379 -0.37256,-21.98041 2.9804,-12.66669 24.58825,-65.19617 31.29412,-80.47064 6.70594,-15.27454 26.07849,-76.37262 33.52948,-92.39222 7.45093,-16.01965 20.49018,-53.27453 20.49018,-53.27453"
       id="path3299"
       stroke-miterlimit="4" />
    <path
       style="fill:none;stroke:#000000;stroke-width:0.73102403px"
       inkscape:connector-curvature="0"
       d="m 358.70935,450.7453 c 0,0 7.8537,-28.46979 13.25318,-49.57666 5.39941,-21.10693 22.57946,-61.84815 21.59771,-71.17444 -0.98169,-9.32629 -8.83545,-14.72577 -10.79883,-3.92688 -1.96344,10.79889 11.28974,18.16174 11.78058,4.41773 0.49085,-13.74402 0,-33.37836 0,-33.37836"
       id="path2288" />
    <path
       style="fill:none;stroke:#000000;stroke-width:0.73102403px"
       inkscape:connector-curvature="0"
       d="m 308.15094,456.63562 c -0.98169,-2.45435 -7.8537,-22.08862 -11.28973,-42.70471 -3.43598,-20.61603 -11.28974,-43.1955 -16.68915,-55.95783 -5.39948,-12.76226 -7.36292,-18.16174 -11.28974,-29.94232 -3.92688,-11.78058 1.96338,-15.21661 6.87201,-3.43603 4.90857,11.78064 -1.47259,22.57946 -6.87201,9.32635 -5.39947,-13.25317 -10.30804,-29.94238 -10.30804,-29.94238"
       id="path2290" />
    <path
       style="fill:none;stroke:#000000;stroke-width:0.73102403px"
       inkscape:connector-curvature="0"
       d="m 184.45471,333.43018 c 0,0 10.79886,-7.8537 28.96063,-8.83545 18.16175,-0.98169 20.12516,-0.98169 38.28693,-0.49085 18.16174,0.49085 11.78058,1.4726 30.43323,0 18.65259,-1.47253 28.46972,-2.94513 53.01263,1.4726 24.54291,4.41772 26.50635,11.78058 45.159,9.32629 18.65259,-2.45428 20.61603,-5.89032 40.25036,-6.87201 19.63428,-0.98169 40.25037,2.45429 43.68634,4.41773 3.43604,1.96344 3.92688,2.94513 3.92688,2.94513"
       id="path2292" />
    <path
       style="fill:none;stroke:#000000;stroke-width:0.310128px"
       inkscape:connector-curvature="0"
       d="m 186.10941,335.86554 c 0,0 -3.2099,-4.96832 -1.5373,-3.48242 1.67264,1.48596 2.37448,2.93951 2.37448,2.93951 m 0.13813,-0.0848 c 0,0 -3.07999,-5.01892 -1.40735,-3.53295 1.67261,1.4859 2.27499,3.0028 2.27499,3.0028 m 0.14145,-0.0792 c 0,0 -2.87698,-5.13855 -1.26501,-3.58679 1.612,1.55182 2.17901,3.07879 2.17901,3.07879 m 0.14377,-0.0749 c 0,0 -2.72031,-5.2232 -1.15597,-3.62341 1.5643,1.59985 2.16244,3.09924 2.16244,3.09924 m 0.0615,-0.0292 c 0,0 -2.55218,-5.30732 -1.03973,-3.65839 1.51245,1.64893 2.06241,3.16663 2.06241,3.16663 m 0.14609,-0.0702 c 0,0 -2.4661,-5.35749 -1.01004,-3.65857 1.45605,1.69891 1.95462,3.23425 1.95462,3.23425 m 0.14837,-0.0652 c 0,0 -2.37204,-5.39026 -0.91598,-3.69134 1.45608,1.69891 1.86139,3.2821 1.86139,3.2821 m 0.1506,-0.06 c 0,0 -2.17932,-5.47094 -0.78445,-3.72149 1.39489,1.74951 1.83865,3.30157 1.83865,3.30157 m 0.1506,-0.06 c 0,0 -2.08215,-5.52478 -0.75354,-3.72448 1.32859,1.80029 1.71411,3.36786 1.71411,3.36786 m 0.15274,-0.0543 c 0,0 -1.97357,-5.54847 -0.64498,-3.74817 1.32858,1.80035 1.71411,3.36785 1.71411,3.36785 m 0.15274,-0.0543 c 0,0 -1.86588,-5.59051 -0.60892,-3.7395 1.25699,1.85101 1.58072,3.43244 1.58072,3.43244 m 0.15475,-0.0483 c 0,0 -1.75448,-5.62152 -0.49752,-3.77051 1.25698,1.85101 1.58075,3.43243 1.58075,3.43243 m 0.15472,-0.0483 c 0,0 -1.63873,-5.6571 -0.45892,-3.75604 1.17981,1.90113 1.43826,3.49451 1.43826,3.49451 m 0.15659,-0.0419 c 0,0 -1.52186,-5.6889 -0.34205,-3.78778 1.17978,1.90112 1.43824,3.49451 1.43824,3.49451 m 0.15661,-0.0419 c 0,0 -1.40008,-5.72406 -0.30316,-3.77398 1.09695,1.95007 1.28665,3.5531 1.28665,3.5531 m 0.15824,-0.0351 c 0,0 -1.27579,-5.74902 -0.17884,-3.79895 1.09693,1.95008 1.28662,3.55311 1.28662,3.55311 m 0.15827,-0.0351 c 0,0 -1.14942,-5.79089 -0.14108,-3.79358 1.00836,1.99732 1.12594,3.60724 1.12594,3.60724 m 0.15967,-0.028 c 0,0 -1.0166,-5.80042 -0.008,-3.80311 1.00836,1.99732 1.12595,3.60724 1.12595,3.60724 m 0.15966,-0.028 c 0,0 -1.0166,-5.80042 -0.008,-3.8031 1.00837,1.99731 0.99262,3.64428 0.99262,3.64428 m 0.1608,-0.0205 c 0,0 -0.74494,-5.8415 0.16915,-3.79932 0.91407,2.04211 0.95643,3.65582 0.95643,3.65582 m 0.16082,-0.0206 c 0,0 -0.74493,-5.84149 0.16913,-3.79931 0.91409,2.04217 0.95645,3.65582 0.95645,3.65582 m 0.1608,-0.0205 c 0,0 -0.60361,-5.85858 0.21072,-3.77465 0.81433,2.08392 0.77866,3.69775 0.77866,3.69775 m 0.16162,-0.0127 c 0,0 -0.46179,-5.87066 0.35254,-3.78674 0.81433,2.08392 0.77866,3.69775 0.77866,3.69775 m 0.16159,-0.0127 c 0,0 -0.46176,-5.87061 0.35254,-3.78668 0.81433,2.08392 0.69693,3.71307 0.69693,3.71307 m 0.16189,-0.008 c 0,0 -0.29693,-5.88183 0.45868,-3.77569 0.75562,2.10614 0.67471,3.7185 0.67471,3.7185 m 0.1619,-0.008 c 0,0 -0.29694,-5.88189 0.45868,-3.77569 0.75561,2.10614 0.67468,3.71844 0.67468,3.71844 m 0.16193,-0.008 c 0,0 -0.29694,-5.88183 0.45868,-3.77569 0.75561,2.1062 0.67468,3.7185 0.67468,3.7185 m 0.1619,-0.008 c 0,0 -0.29694,-5.88183 0.45871,-3.77569 0.75561,2.10614 0.67468,3.71844 0.67468,3.71844 m 0.16192,-0.008 c 0,0 -0.29696,-5.88183 0.45865,-3.77563 0.75562,2.10614 0.67469,3.71844 0.67469,3.71844 m 0.16192,-0.008 c 0,0 -0.29693,-5.88184 0.45868,-3.7757 0.75562,2.1062 0.67468,3.71851 0.67468,3.71851 m 0.16193,-0.008 c 0,0 -0.29694,-5.88184 0.45868,-3.7757 0.75561,2.10614 0.67468,3.71845 0.67468,3.71845 m 0.1619,-0.008 c 0,0 -0.29694,-5.88184 0.45868,-3.77564 0.75564,2.10614 0.67471,3.71845 0.67471,3.71845 m 0.1619,-0.008 c 0,0 -0.23554,-5.8888 0.47583,-3.76734 0.71133,2.1214 0.59671,3.73163 0.59671,3.73163 m 0.16204,-0.005 c 0,0 -0.17379,-5.8866 0.53754,-3.76514 0.71137,2.1214 0.59674,3.73163 0.59674,3.73163 m 0.16202,-0.005 c 0,0 -0.17377,-5.8866 0.53757,-3.76514 0.71136,2.1214 0.59671,3.73163 0.59671,3.73163 m 0.16205,-0.005 c 0,0 -0.1738,-5.8866 0.53756,-3.76514 0.71137,2.1214 0.59671,3.73163 0.59671,3.73163 m 0.16205,-0.005 c 0,0 -0.1738,-5.88654 0.53757,-3.76508 0.71136,2.1214 0.59671,3.73163 0.59671,3.73163 m 0.16205,-0.005 c 0,0 -0.1738,-5.88654 0.53756,-3.76508 0.71134,2.1214 0.59671,3.73163 0.59671,3.73163 m 0.16205,-0.005 c 0,0 -0.0731,-5.90472 0.56513,-3.76019 0.63824,2.14459 0.4685,3.74994 0.4685,3.74994 m 0.16211,7.3e-4 c 0,0 0.028,-5.88904 0.66626,-3.74445 0.63825,2.14453 0.46848,3.74988 0.46848,3.74988 m 0.1621,7.9e-4 c 0,0 0.0281,-5.8891 0.66629,-3.7445 0.63825,2.14453 0.46851,3.74987 0.46851,3.74987 m 0.16208,8e-4 c 0,0 0.0281,-5.8891 0.66629,-3.74451 0.63824,2.14459 0.46847,3.74988 0.46847,3.74988 m 0.16211,7.9e-4 c 0,0 0.028,-5.88904 0.66629,-3.74451 0.63825,2.1446 0.46848,3.74994 0.46848,3.74994 m 0.16211,7.3e-4 c 0,0 0.028,-5.88903 0.66629,-3.7445 0.63824,2.14459 0.46847,3.74994 0.46847,3.74994 m 0.16211,7.3e-4 c 0,0 0.028,-5.88904 0.66626,-3.74445 0.63825,2.14453 0.4112,3.75629 0.4112,3.75629 m 0.16204,0.004 c 0,0 0.14252,-5.88764 0.73896,-3.73102 0.59649,2.15668 0.39557,3.75848 0.39557,3.75848 m 0.16204,0.004 c 0,0 0.14252,-5.88764 0.73896,-3.73096 0.59643,2.15662 0.3955,3.75842 0.3955,3.75842 m 0.16211,0.004 c 0,0 0.14246,-5.88757 0.73896,-3.73096 0.59643,2.15662 0.3955,3.75843 0.3955,3.75843 m 0.16205,0.004 c 0,0 0.14252,-5.88757 0.73896,-3.73095 0.59649,2.15667 0.39556,3.75842 0.39556,3.75842 m 0.16205,0.004 c 0,0 0.14252,-5.88757 0.73896,-3.73095 0.59643,2.15667 0.3955,3.75842 0.3955,3.75842 m 0.16211,0.004 c 0,0 0.14252,-5.88764 0.73896,-3.73102 0.59643,2.15668 0.3955,3.75848 0.3955,3.75848 m 0.16205,0.004 c 0,0 0.14252,-5.88763 0.73902,-3.73096 0.59643,2.15662 0.3955,3.75843 0.3955,3.75843 m 0.16205,0.004 c 0,0 0.14252,-5.88763 0.73895,-3.73096 0.5965,2.15662 0.39551,3.75843 0.39551,3.75843 m 0.16211,0.004 c 0,0 0.1742,-5.88867 0.74744,-3.72577 0.57318,2.16297 0.35504,3.76246 0.35504,3.76246 m 0.16205,0.006 c 0,0 0.20581,-5.88568 0.77905,-3.72278 0.57318,2.16291 0.35504,3.76245 0.35504,3.76245 m 0.16205,0.006 c 0,0 0.20581,-5.88568 0.77899,-3.72278 0.57325,2.1629 0.35511,3.76245 0.35511,3.76245 m 0.16198,0.006 c 0,0 0.20588,-5.88568 0.77906,-3.72278 0.57324,2.1629 0.3551,3.76245 0.3551,3.76245 m 0.16199,0.006 c 0,0 0.20581,-5.88568 0.77905,-3.72278 0.57324,2.1629 0.30267,3.76678 0.30267,3.76678 m 0.16187,0.009 c 0,0 0.31006,-5.8811 0.84491,-3.70844 0.53479,2.17273 0.28833,3.76819 0.28833,3.76819 m 0.16186,0.008 c 0,0 0.31006,-5.88111 0.84491,-3.70838 0.53479,2.17273 0.28833,3.76813 0.28833,3.76813 m 0.16193,0.009 c 0,0 0.31006,-5.8811 0.84485,-3.70837 0.53485,2.17273 0.26257,3.76843 0.26257,3.76843 m 0.1618,0.01 c 0,0 0.36145,-5.87787 0.8772,-3.70068 0.51575,2.17724 0.25537,3.77032 0.25537,3.77032 m 0.16181,0.01 c 0,0 0.36145,-5.87793 0.87725,-3.70074 0.51575,2.17724 0.25538,3.77038 0.25538,3.77038 m 0.1618,0.01 c 0,0 0.36145,-5.87793 0.8772,-3.70068 0.5158,2.17718 0.25537,3.77032 0.25537,3.77032 m 0.1618,0.01 c 0,0 0.36145,-5.87793 0.87726,-3.70068 0.51575,2.17718 0.38623,3.76819 0.38623,3.76819 m 0.16205,0.003 c 0,0 0.10034,-5.88793 0.71216,-3.73584 0.61181,2.1521 0.42242,3.75519 0.42242,3.75519 m 0.16205,0.003 c 0,0 0.10034,-5.88794 0.71216,-3.73584 0.61181,2.1521 0.55804,3.73639 0.55804,3.73639 m 0.16205,-0.005 c 0,0 -0.17121,-5.88648 0.53924,-3.76477 0.71039,2.1217 0.59504,3.73181 0.59504,3.73181 m 0.16204,-0.005 c 0,0 -0.1712,-5.88648 0.53919,-3.76483 0.71039,2.1217 0.68457,3.72747 0.68457,3.72747 m 0.1618,-0.01 c 0,0 -0.35022,-5.87878 0.42444,-3.7796 0.77466,2.09918 0.70831,3.71216 0.70831,3.71216 m 0.16187,-0.01 c 0,0 -0.35022,-5.87884 0.42444,-3.77966 0.77465,2.09918 0.70837,3.71216 0.70837,3.71216 m 0.1618,-0.01 c 0,0 -0.35022,-5.87878 0.42444,-3.7796 0.77466,2.09918 0.70832,3.71216 0.70832,3.71216 m 0.16186,-0.01 c 0,0 -0.39477,-5.87452 0.41168,-3.78736 0.80652,2.08722 0.76471,3.70105 0.76471,3.70105 m 0.16168,-0.0121 c 0,0 -0.43957,-5.87293 0.36695,-3.78571 0.80645,2.08716 0.76471,3.70099 0.76471,3.70099 m 0.16168,-0.0121 c 0,0 -0.43958,-5.87292 0.36694,-3.7857 0.80646,2.08716 0.76471,3.70099 0.76471,3.70099 m 0.16162,-0.0121 c 0,0 -0.43951,-5.87292 0.36694,-3.7857 0.80652,2.08721 0.76471,3.70098 0.76471,3.70098 m 0.16168,-0.0121 c 0,0 -0.43957,-5.87293 0.36695,-3.78571 0.80646,2.08722 0.77881,3.69843 0.77881,3.69843 m 0.16156,-0.0129 c 0,0 -0.46796,-5.8706 0.34863,-3.78735 0.81659,2.08325 0.78259,3.6972 0.78259,3.6972 m 0.16162,-0.0129 c 0,0 -0.46795,-5.87066 0.34864,-3.78741 0.81652,2.08325 0.78259,3.6972 0.78259,3.6972 m 0.16156,-0.0129 c 0,0 -0.46796,-5.87061 0.34863,-3.78736 0.81659,2.08325 0.7826,3.69721 0.7826,3.69721 m 0.16162,-0.0129 c 0,0 -0.46796,-5.87067 0.34863,-3.78742 0.81653,2.08326 0.78259,3.69727 0.78259,3.69727 m 0.16156,-0.0129 c 0,0 -0.46789,-5.87067 0.34864,-3.78741 0.81659,2.08325 0.78259,3.6972 0.78259,3.6972 m 0.16162,-0.0129 c 0,0 -0.46796,-5.8706 0.34863,-3.78735 0.81653,2.08325 0.7826,3.6972 0.7826,3.6972 m 0.16156,-0.0129 c 0,0 -0.4679,-5.87067 0.34863,-3.78742 0.81659,2.08325 0.78259,3.69727 0.78259,3.69727 m 0.16162,-0.0129 c 0,0 -0.46795,-5.87067 0.34864,-3.78742 0.81652,2.08326 0.78259,3.69721 0.78259,3.69721 m 0.16156,-0.0129 c 0,0 -0.46796,-5.87067 0.34863,-3.78741 0.81659,2.08331 0.7826,3.69726 0.7826,3.69726 m 0.16162,-0.0129 c 0,0 -0.40406,-5.88842 0.36633,-3.78772 0.77039,2.10071 0.70081,3.71351 0.70081,3.71351 m 0.16186,-0.009 c 0,0 -0.33832,-5.87946 0.43213,-3.77875 0.77039,2.10077 0.70081,3.7135 0.70081,3.7135 m 0.1618,-0.009 c 0,0 -0.33826,-5.87945 0.43213,-3.77868 0.77038,2.10071 0.7008,3.7135 0.7008,3.7135 m 0.16187,-0.009 c 0,0 -0.33832,-5.87939 0.43207,-3.77869 0.77038,2.10071 0.7008,3.7135 0.7008,3.7135 m 0.16187,-0.009 c 0,0 -0.33832,-5.87946 0.43207,-3.77875 0.77038,2.10077 0.7008,3.71356 0.7008,3.71356 m 0.0883,-0.004 c 0,0 -0.19092,-5.88617 0.52661,-3.76679 0.71753,2.11945 0.60761,3.72998 0.60761,3.72998 m 0.16204,-0.005 c 0,0 -0.19098,-5.88617 0.52655,-3.76673 0.71759,2.11939 0.60761,3.72998 0.60761,3.72998 m 0.16205,-0.005 c 0,0 -0.12897,-5.89215 0.54376,-3.75812 0.67267,2.1341 0.52881,3.74195 0.52881,3.74195 m 0.16205,-0.002 c 0,0 -0.0668,-5.88886 0.60595,-3.75483 0.67267,2.1341 0.52881,3.74195 0.52881,3.74195 m 0.16211,-0.002 c 0,0 0.002,-5.90155 0.62463,-3.75238 0.62269,2.14923 0.44123,3.75329 0.44123,3.75329 m 0.16211,0.002 c 0,0 0.0709,-5.88879 0.69354,-3.73962 0.62262,2.14917 0.44116,3.7533 0.44116,3.7533 m 0.16211,0.002 c 0,0 0.0709,-5.88879 0.69348,-3.73962 0.62268,2.14917 0.36835,3.7564 0.36835,3.7564 m 0.16198,0.006 c 0,0 0.21644,-5.88526 0.78571,-3.72132 0.56934,2.16388 0.34833,3.763 0.34833,3.763 m 0.16199,0.006 c 0,0 0.21643,-5.88519 0.78576,-3.72131 0.56928,2.16394 0.34827,3.76306 0.34827,3.76306 m 0.16199,0.006 c 0,0 0.29046,-5.88495 0.80523,-3.70746 0.51484,2.17755 0.25373,3.77057 0.25373,3.77057 m 0.1618,0.01 c 0,0 0.36408,-5.87793 0.87891,-3.70037 0.51483,2.17748 0.25372,3.77056 0.25372,3.77056 m 0.1618,0.01 c 0,0 0.36408,-5.87793 0.87891,-3.70043 0.51483,2.17755 0.18072,3.77404 0.18072,3.77404 m 0.1615,0.014 c 0,0 0.50879,-5.86725 0.96979,-3.67767 0.461,2.18951 0.16077,3.77569 0.16077,3.77569 m 0.1615,0.014 c 0,0 0.50879,-5.86719 0.96979,-3.67761 0.46099,2.18951 0.16076,3.77569 0.16076,3.77569 m 0.1615,0.014 c 0,0 0.57831,-5.86737 0.98779,-3.6676 0.40943,2.19977 0.072,3.77844 0.072,3.77844 m 0.16114,0.0178 c 0,0 0.64648,-5.85357 1.05597,-3.65381 0.40942,2.19977 0.072,3.77844 0.072,3.77844 m 0.16113,0.0178 c 0,0 0.64654,-5.85364 1.05597,-3.65387 0.40942,2.19983 0.072,3.77844 0.072,3.77844 m 0.16113,0.0178 c 0,0 0.71057,-5.84662 1.07178,-3.63843 0.3612,2.20825 -0.0107,3.77912 -0.0107,3.77912 m 0.1607,0.0214 c 0,0 0.77454,-5.83814 1.13568,-3.62995 0.36121,2.20826 -0.0107,3.77918 -0.0107,3.77918 m 0.16071,0.0213 c 0,0 0.77447,-5.83814 1.13562,-3.62988 0.3612,2.20819 -0.0107,3.77911 -0.0107,3.77911 m 0.1607,0.0213 c 0,0 0.83283,-5.83032 1.14978,-3.61529 0.31696,2.21502 -0.0863,3.77813 -0.0863,3.77813 m 0.16028,0.0245 c 0,0 0.89105,-5.82141 1.20801,-3.60644 0.31695,2.21502 -0.0863,3.77813 -0.0863,3.77813 m 0.16028,0.0246 c 0,0 0.89105,-5.82147 1.20801,-3.60651 0.31701,2.21503 -0.0863,3.7782 -0.0863,3.7782 m 0.16028,0.0245 c 0,0 0.94422,-5.81842 1.22131,-3.59809 0.2771,2.22034 -0.15423,3.776 -0.15423,3.776 m 0.15979,0.0274 c 0,0 0.9956,-5.8045 1.2727,-3.58417 0.27704,2.2204 -0.15423,3.77606 -0.15423,3.77606 m 0.15979,0.0274 c 0,0 0.9956,-5.80457 1.2727,-3.58417 0.27704,2.22034 -0.15423,3.776 -0.15423,3.776 m 0.15973,0.0274 c 0,0 0.99566,-5.80451 1.27276,-3.58417 0.27704,2.2204 -0.22876,3.76776 -0.22876,3.76776 m 0.159,0.0314 c 0,0 1.14264,-5.7771 1.36322,-3.55054 0.22064,2.22662 -0.25,3.77075 -0.25,3.77075 m 0.15906,0.0314 c 0,0 1.14257,-5.77716 1.36322,-3.55053 0.22058,2.22656 -0.25006,3.77069 -0.25006,3.77069 m 0.15905,0.0315 c 0,0 1.14258,-5.77716 1.36322,-3.5506 0.22058,2.22663 -0.25006,3.77076 -0.25006,3.77076 m 0.15906,0.0314 c 0,0 1.24567,-5.76068 1.38733,-3.52765 0.14166,2.23303 -0.3833,3.75952 -0.3833,3.75952 m 0.15777,0.0371 c 0,0 1.34644,-5.73309 1.48804,-3.50006 0.14173,2.23297 -0.3833,3.75952 -0.3833,3.75952 m 0.15778,0.037 c 0,0 1.34643,-5.7331 1.48809,-3.50006 0.14167,2.23297 -0.38336,3.75946 -0.38336,3.75946 m 0.15778,0.0371 c 0,0 1.44848,-5.7163 1.5119,-3.47967 0.0635,2.23657 -0.51465,3.74377 -0.51465,3.74377 m 0.15644,0.0426 c 0,0 1.54614,-5.68244 1.60961,-3.44587 0.0634,2.23664 -0.51464,3.74384 -0.51464,3.74384 m 0.15643,0.0425 c 0,0 1.54614,-5.68249 1.60956,-3.44586 0.0635,2.23657 -0.51465,3.74377 -0.51465,3.74377 m 0.0635,0.0175 c 0,0 1.73102,-5.62897 1.72131,-3.39148 -0.01,2.23749 -0.63666,3.72504 -0.63666,3.72504 m 0.15491,0.0476 c 0,0 1.73102,-5.62896 1.72137,-3.39147 -0.01,2.23754 -0.63671,3.72503 -0.63671,3.72503 m 0.15496,0.0477 c 0,0 1.81415,-5.61975 1.74219,-3.38336 -0.0719,2.23639 -0.74011,3.70593 -0.74011,3.70593 m 0.15356,0.0519 c 0,0 1.88703,-5.57867 1.81513,-3.34234 -0.072,2.23645 -0.74017,3.70593 -0.74017,3.70593 m 0.15356,0.0519 c 0,0 1.88702,-5.57867 1.81512,-3.34228 -0.072,2.23638 -0.79663,3.68975 -0.79663,3.68975 m 0.15253,0.055 c 0,0 1.99774,-5.5401 1.88129,-3.30555 -0.11646,2.23456 -0.81378,3.6905 -0.81378,3.6905 m 0.15252,0.055 c 0,0 1.99774,-5.5401 1.88129,-3.30554 -0.11646,2.23455 -0.82983,3.68487 -0.82983,3.68487 m 0.15222,0.0558 c 0,0 2.02966,-5.52844 1.90033,-3.29462 -0.12934,2.23383 -0.83509,3.68573 -0.83509,3.68573 m 0.15217,0.0558 c 0,0 2.02972,-5.52844 1.90039,-3.29462 -0.12934,2.23383 -0.83509,3.68573 -0.83509,3.68573 m 0.15216,0.0559 c 0,0 2.02973,-5.52838 1.90033,-3.29462 -0.12933,2.23389 -0.83502,3.68573 -0.83502,3.68573 m 0.15216,0.0559 c 0,0 2.02967,-5.52844 1.90033,-3.29462 -0.12933,2.23383 -0.76147,3.70374 -0.76147,3.70374 m 0.15356,0.0519 c 0,0 1.88745,-5.57843 1.81531,-3.3421 -0.0721,2.23639 -0.74042,3.70581 -0.74042,3.70581 m 0.15357,0.0519 c 0,0 1.76874,-5.59247 1.78583,-3.3551 0.0171,2.2373 -0.59198,3.73211 -0.59198,3.73211 m 0.15545,0.0458 c 0,0 1.66345,-5.64899 1.68054,-3.41168 0.0172,2.23736 -0.59204,3.73218 -0.59204,3.73218 m 0.15552,0.0458 c 0,0 1.50256,-5.67816 1.64343,-3.44537 0.14093,2.23279 -0.38452,3.75897 -0.38452,3.75897 m 0.15778,0.0371 c 0,0 1.34814,-5.732 1.48907,-3.49921 0.14087,2.23279 -0.38458,3.75897 -0.38458,3.75897 m 0.29926,0.0629 c 0,0 1.06689,-5.79163 1.31665,-3.56812 0.24975,2.22352 -0.0981,3.7887 -0.0981,3.7887 m 0.16034,0.0237 c 0,0 0.86249,-5.8255 1.19031,-3.61218 0.32776,2.21332 0.0386,3.78626 0.0386,3.78626 m 0.16114,0.0179 c 0,0 0.65124,-5.85285 1.05884,-3.65283 0.40765,2.20001 0.17639,3.77978 0.17639,3.77978 m 0.16168,0.0121 c 0,0 0.43787,-5.87275 0.92529,-3.68903 0.48743,2.18378 0.31244,3.76996 0.31244,3.76996 m 0.16199,0.006 c 0,0 0.22668,-5.8847 0.79223,-3.71984 0.5655,2.16485 0.44458,3.75738 0.44458,3.75738 m 0.16211,6.1e-4 c 0,0 0.0213,-5.88904 0.66199,-3.74524 0.64069,2.1438 0.57092,3.74292 0.57092,3.74292 m 0.16205,-0.005 c 0,0 -0.17517,-5.88648 0.53668,-3.7652 0.71186,2.12122 0.5976,3.73145 0.5976,3.73145 m 0.25452,-0.0141 c 0,0 -0.36066,-5.87805 0.41772,-3.78028 0.77838,2.09778 0.71491,3.71082 0.71491,3.71082 m 0.1618,-0.01 c 0,0 -0.44696,-5.86938 0.39288,-3.79541 0.83985,2.07391 0.82392,3.68811 0.82392,3.68811 m 0.16143,-0.0146 c 0,0 -0.61248,-5.84594 0.28363,-3.79571 0.89618,2.05029 0.92432,3.66437 0.92432,3.66437 m 0.16101,-0.0191 c 0,0 -0.69354,-5.8482 0.20258,-3.79797 0.89612,2.05029 0.99121,3.64795 0.99121,3.64795 m 0.16052,-0.0228 c 0,0 -0.82935,-5.83051 0.1142,-3.80164 0.9436,2.02887 1.00927,3.64185 1.00927,3.64185 m 0.16053,-0.0228 c 0,0 -0.82935,-5.83056 0.11419,-3.80169 0.94361,2.02887 1.00928,3.6419 1.00928,3.6419 m 0.16052,-0.0228 c 0,0 -0.89215,-5.81519 0.0956,-3.80738 0.98767,2.00775 1.08863,3.6189 1.08863,3.6189 m 0.15997,-0.0263 c 0,0 -0.95667,-5.81103 0.0311,-3.80328 0.98773,2.00775 1.08862,3.61889 1.08862,3.61889 m 0.15997,-0.0263 c 0,0 -0.9566,-5.81104 0.0311,-3.80329 0.98773,2.00782 1.1507,3.59778 1.1507,3.59778 m 0.15936,-0.0298 c 0,0 -1.08423,-5.78858 -0.0526,-3.80298 1.03167,1.98553 1.16803,3.59411 1.16803,3.59411 m 0.1593,-0.0299 c 0,0 -1.08417,-5.78858 -0.0525,-3.80298 1.03161,1.98553 1.22693,3.57544 1.22693,3.57544 m 0.15869,-0.0331 c 0,0 -1.20478,-5.7647 -0.13196,-3.80108 1.07288,1.96356 1.24274,3.56897 1.24274,3.56897 m 0.15869,-0.0332 c 0,0 -1.20478,-5.76471 -0.1319,-3.80109 1.07282,1.96356 1.31091,3.54303 1.31091,3.54303 m 0.15778,-0.0371 c 0,0 -1.3457,-5.7334 -0.22504,-3.79669 1.12061,1.93671 1.32984,3.53735 1.32984,3.53735 m 0.15777,-0.037 c 0,0 -1.34564,-5.73334 -0.22503,-3.79664 1.12066,1.93665 1.32983,3.53736 1.32983,3.53736 m 0.15784,-0.0371 c 0,0 -1.34571,-5.73334 -0.2251,-3.79669 1.12067,1.9367 1.32983,3.53741 1.32983,3.53741 m 0.19495,-0.046 c 0,0 -1.41998,-5.71557 -0.27429,-3.79352 1.14569,1.922 1.37567,3.5199 1.37567,3.5199 m 0.15729,-0.0391 c 0,0 -1.41999,-5.71558 -0.2743,-3.79358 1.14569,1.92206 1.37567,3.51996 1.37567,3.51996 m 0.15729,-0.0391 c 0,0 -1.41998,-5.71557 -0.27429,-3.79352 1.14569,1.92206 1.37567,3.5199 1.37567,3.5199 m 0.15729,-0.0391 c 0,0 -1.36707,-5.73248 -0.25775,-3.78931 1.10931,1.94318 1.30914,3.54498 1.30914,3.54498 m 0.15802,-0.0361 c 0,0 -1.31219,-5.74103 -0.20288,-3.79785 1.10925,1.94312 1.30908,3.54498 1.30908,3.54498 m 0.15808,-0.0361 c 0,0 -1.31219,-5.74097 -0.20294,-3.79785 1.10932,1.94317 1.30914,3.54498 1.30914,3.54498 m 0.15802,-0.0361 c 0,0 -1.22485,-5.77533 -0.17712,-3.79822 1.04767,1.97711 1.19708,3.58447 1.19708,3.58447 m 0.15912,-0.0311 c 0,0 -1.13116,-5.77954 -0.0835,-3.80243 1.04773,1.97711 1.19714,3.58447 1.19714,3.58447 m 0.15912,-0.0311 c 0,0 -1.05444,-5.79626 -0.0598,-3.79199 0.99462,2.00433 1.10113,3.61511 1.10113,3.61511 m 0.15985,-0.0269 c 0,0 -0.97668,-5.80756 0.0179,-3.80329 0.99462,2.00433 1.10113,3.61511 1.10113,3.61511 m 0.0786,-0.0107 c 0,0 -0.81305,-5.83276 0.12482,-3.80127 0.93787,2.0315 0.99908,3.64459 0.99908,3.64459 m 0.16053,-0.0223 c 0,0 -0.81299,-5.83276 0.12487,-3.80133 0.93787,2.0315 0.99909,3.64466 0.99909,3.64466 m 0.0799,-0.008 c 0,0 -0.65081,-5.85309 0.23035,-3.79639 0.88111,2.05677 0.89746,3.67103 0.89746,3.67103 m 0.16114,-0.018 c 0,0 -0.65082,-5.85309 0.23034,-3.79639 0.88111,2.05677 0.89752,3.67096 0.89752,3.67096 m 0.16114,-0.0179 c 0,0 -0.5744,-5.86255 0.25268,-3.78345 0.82703,2.07904 0.80121,3.69318 0.80121,3.69318 m 0.16156,-0.0137 c 0,0 -0.49762,-5.86811 0.32947,-3.78907 0.82709,2.07911 0.80127,3.69318 0.80127,3.69318 m 0.1615,-0.0137 c 0,0 -0.42877,-5.8877 0.34863,-3.78955 0.77735,2.0982 0.71314,3.71124 0.71314,3.71124 m 0.1618,-0.01 c 0,0 -0.35779,-5.87835 0.41956,-3.78021 0.7774,2.09821 0.71313,3.71124 0.71313,3.71124 m 0.16181,-0.01 c 0,0 -0.35779,-5.87842 0.41955,-3.78021 0.77741,2.0982 0.7132,3.71124 0.7132,3.71124 m 0.1618,-0.01 c 0,0 -0.28589,-5.8869 0.43976,-3.77026 0.72559,2.11657 0.62183,3.72754 0.62183,3.72754 m 0.16198,-0.006 c 0,0 -0.21338,-5.88532 0.51221,-3.76868 0.72565,2.11658 0.62183,3.72754 0.62183,3.72754 m 0.16204,-0.006 c 0,0 -0.21344,-5.88532 0.51221,-3.76868 0.72559,2.11658 0.62183,3.72754 0.62183,3.72754 m 0.16198,-0.006 c 0,0 -0.13775,-5.88733 0.53327,-3.75275 0.67096,2.13459 0.52575,3.74238 0.52575,3.74238 m 0.16211,-0.002 c 0,0 -0.062,-5.88886 0.60895,-3.75434 0.67096,2.13459 0.52582,3.74237 0.52582,3.74237 m 0.16211,-0.002 c 0,0 -0.0621,-5.88886 0.60889,-3.75434 0.67095,2.13465 0.45654,3.74317 0.45654,3.74317 m 0.16211,0.002 c 0,0 0.0765,-5.88873 0.69708,-3.73895 0.62054,2.14978 0.43762,3.75366 0.43762,3.75366 m 0.16211,0.002 c 0,0 0.0765,-5.88874 0.69702,-3.73896 0.62061,2.14978 0.43769,3.75367 0.43769,3.75367 m 0.16204,0.002 c 0,0 0.0765,-5.88873 0.69709,-3.73895 0.6206,2.14978 0.37341,3.75806 0.37341,3.75806 m 0.16199,0.006 c 0,0 0.20471,-5.88568 0.77832,-3.7229 0.57367,2.16278 0.35583,3.76233 0.35583,3.76233 m 0.16199,0.006 c 0,0 0.20465,-5.88568 0.77832,-3.7229 0.57367,2.16278 0.35583,3.76233 0.35583,3.76233 m 0.16199,0.006 c 0,0 0.26526,-5.89465 0.79462,-3.72064 0.52936,2.17407 0.27893,3.76886 0.27893,3.76886 m 0.16186,0.009 c 0,0 0.32477,-5.88025 0.85413,-3.70624 0.52936,2.17407 0.27893,3.76886 0.27893,3.76886 m 0.16187,0.009 c 0,0 0.32482,-5.88025 0.85418,-3.70624 0.52936,2.17408 0.27887,3.76886 0.27887,3.76886 m 0.16187,0.009 c 0,0 0.3822,-5.8805 0.8692,-3.6966 0.487,2.18396 0.20557,3.77356 0.20557,3.77356 m 0.16168,0.0121 c 0,0 0.43908,-5.87287 0.92608,-3.68891 0.48694,2.1839 0.20557,3.77356 0.20557,3.77356 m 0.16162,0.0121 c 0,0 0.43909,-5.87293 0.92609,-3.68897 0.487,2.18396 0.15014,3.771 0.15014,3.771 m 0.16138,0.0151 c 0,0 0.54962,-5.86359 0.99542,-3.67084 0.44574,2.19269 0.13446,3.77673 0.13446,3.77673 m 0.16138,0.0151 c 0,0 0.54962,-5.86359 0.99542,-3.67084 0.44574,2.19269 0.13446,3.77673 0.13446,3.77673 m 0.16138,0.0151 c 0,0 0.60498,-5.8656 1.00982,-3.66498 0.40485,2.20063 0.0641,3.77863 0.0641,3.77863 m 0.16113,0.0181 c 0,0 0.6587,-5.85236 1.06354,-3.65168 0.40491,2.20063 0.0641,3.77857 0.0641,3.77857 m 0.16107,0.0182 c 0,0 0.65875,-5.85236 1.0636,-3.65174 0.40485,2.20069 0.008,3.77545 0.008,3.77545 m 0.1607,0.0212 c 0,0 0.76911,-5.8388 1.13233,-3.63092 0.36322,2.20789 -0.007,3.77912 -0.007,3.77912 m 0.16077,0.0212 c 0,0 0.7691,-5.83881 1.13232,-3.63092 0.36322,2.20788 -0.007,3.77911 -0.007,3.77911 m 0.10309,0.0131 c 0,0 0.88434,-5.82245 1.20386,-3.60785 0.31951,2.21467 -0.0819,3.77826 -0.0819,3.77826 m 0.16027,0.0244 c 0,0 0.88434,-5.82251 1.20386,-3.60785 0.31952,2.21466 -0.0819,3.77826 -0.0819,3.77826 m 0.16022,0.0243 c 0,0 0.94727,-5.81506 1.21912,-3.59406 0.27191,2.22095 -0.16309,3.77558 -0.16309,3.77558 m 0.15973,0.0278 c 0,0 1.00928,-5.80206 1.28113,-3.58112 0.27185,2.22101 -0.16315,3.77564 -0.16315,3.77564 m 0.15973,0.0278 c 0,0 1.08044,-5.78949 1.29767,-3.5625 0.21728,2.22693 -0.25574,3.77039 -0.25574,3.77039 m 0.159,0.0317 c 0,0 1.15136,-5.77551 1.36865,-3.54852 0.21722,2.22693 -0.34284,3.75702 -0.34284,3.75702 m 0.15796,0.0364 c 0,0 1.32337,-5.73847 1.474,-3.50605 0.15064,2.23243 -0.36822,3.76105 -0.36822,3.76105 m 0.15796,0.0364 c 0,0 1.43902,-5.72162 1.50134,-3.48511 0.0624,2.23651 -0.51642,3.74341 -0.51642,3.74341 m 0.15637,0.0426 c 0,0 1.7248,-5.6662 1.65595,-3.43017 -0.0688,2.23602 -0.73486,3.70617 -0.73486,3.70617 m 0.15362,0.0518 c 0,0 2.08838,-5.54822 1.86231,-3.32239 -0.22602,2.22583 -1.18976,3.55524 -1.18976,3.55524 m 0.14459,0.0732 c 0,0 2.84784,-5.16937 2.30603,-2.99853 -0.54175,2.17089 -1.5047,3.46649 -1.5047,3.46649 m 0.13916,0.0831 c 0,0 3.13733,-4.99738 2.50055,-2.85248 -0.63684,2.14484 -1.65582,3.39673 -1.65582,3.39673 m 0.13531,0.0892 c 0,0 3.36536,-4.83545 2.62054,-2.72577 -0.74487,2.10974 -1.9696,3.21039 -1.9696,3.21039 m 0.12482,0.10346 c 0,0 3.92236,-4.41388 2.91577,-2.41608 -1.00653,1.99786 -2.58972,2.69665 -2.58972,2.69665"
       id="path8972" />
    <path
       inkscape:connector-curvature="0"
       style="opacity:0.8;fill:url(#svg_9);fill-rule:evenodd;stroke:#666666;stroke-width:0.73102403px"
       id="path2562"
       d="M 513.29566,55.638782 C 468.03404,21.867503 406.1873,1.62439 349.94601,0.379578 78.535699,-1.67206 2.997501,221.19701 0.426789,329.27802 -1.537199,411.85101 43.9232,501.97699 107.441,609.76502 c 63.51901,107.78796 30.061,119.984 49.68701,167.95098 13.832,33.80402 30.37098,48.40003 30.37098,48.40003"
       sodipodi:nodetypes="ccsscc" />
  </g>
</svg>
