<?xml version="1.0" encoding="UTF-8" standalone="no"?>
<svg
   xmlns:dc="http://purl.org/dc/elements/1.1/"
   xmlns:cc="http://creativecommons.org/ns#"
   xmlns:rdf="http://www.w3.org/1999/02/22-rdf-syntax-ns#"
   xmlns:svg="http://www.w3.org/2000/svg"
   xmlns="http://www.w3.org/2000/svg"
   xmlns:sodipodi="http://sodipodi.sourceforge.net/DTD/sodipodi-0.dtd"
   xmlns:inkscape="http://www.inkscape.org/namespaces/inkscape"
   height="19"
   version="1.1"
   viewBox="0 0 18 19"
   width="18"
   id="svg3910"
   inkscape:version="0.48.4 r9939"
   sodipodi:docname="off.svg">
  <metadata
     id="metadata3921">
    <rdf:RDF>
      <cc:Work
         rdf:about="">
        <dc:format>image/svg+xml</dc:format>
        <dc:type
           rdf:resource="http://purl.org/dc/dcmitype/StillImage" />
      </cc:Work>
    </rdf:RDF>
  </metadata>
  <sodipodi:namedview
     pagecolor="#ffffff"
     bordercolor="#666666"
     borderopacity="1"
     objecttolerance="10"
     gridtolerance="10"
     guidetolerance="10"
     inkscape:pageopacity="0"
     inkscape:pageshadow="2"
     inkscape:window-width="785"
     inkscape:window-height="480"
     id="namedview3919"
     showgrid="false"
     inkscape:zoom="11.313709"
     inkscape:cx="4.864794"
     inkscape:cy="14.547343"
     inkscape:window-x="57"
     inkscape:window-y="24"
     inkscape:window-maximized="0"
     inkscape:current-layer="svg3910"
     fit-margin-top="2"
     fit-margin-left="2"
     fit-margin-right="2"
     fit-margin-bottom="2" />
  <title
     id="title3912" />
  <defs
     id="defs3914" />
  <g
     style="fill:#7d7d7d;fill-opacity:1;fill-rule:evenodd;stroke:none"
     transform="translate(-239,-143)"
     id="Group">
    <path
       inkscape:connector-curvature="0"
       style="fill:#7d7d7d;fill-opacity:1"
       id="Oval 188"
       d="m 248,158 c 2.76142,0 5,-2.23858 5,-5 0,-1.63581 -0.78555,-3.08815 -2,-4.00037 0,-0.77533 0,-1.55067 0,-2.326 2.36494,1.12346 4,3.53397 4,6.32637 0,3.86599 -3.13401,7 -7,7 -3.86599,0 -7,-3.13401 -7,-7 0,-2.7924 1.63505,-5.20291 4,-6.32637 l 0,2.326 c -1.21445,0.91222 -2,2.36456 -2,4.00037 0,2.76142 2.23858,5 5,5 z m 0,-5 c -0.55614,0 -1,-0.44639 -1,-0.99703 l 0,-6.00594 C 247,145.45304 247.44771,145 248,145 c 0.55613,0 1,0.44639 1,0.99703 l 0,6.00594 C 249,152.54696 248.55228,153 248,153 z"
       sodipodi:nodetypes="ssccsssccsssssssss" />
  </g>
</svg>
