<?xml version="1.0" encoding="UTF-8" standalone="no"?>
<svg
   xmlns:osb="http://www.openswatchbook.org/uri/2009/osb"
   xmlns:dc="http://purl.org/dc/elements/1.1/"
   xmlns:cc="http://creativecommons.org/ns#"
   xmlns:rdf="http://www.w3.org/1999/02/22-rdf-syntax-ns#"
   xmlns:svg="http://www.w3.org/2000/svg"
   xmlns="http://www.w3.org/2000/svg"
   xmlns:sodipodi="http://sodipodi.sourceforge.net/DTD/sodipodi-0.dtd"
   xmlns:inkscape="http://www.inkscape.org/namespaces/inkscape"
   height="45.722454"
   id="Layer_1"
   version="1.1"
   viewBox="0 0 53.392765 45.722454"
   width="53.392765"
   xml:space="preserve"
   inkscape:version="0.48.4 r9939"
   sodipodi:docname="pihome.svg"><metadata
     id="metadata3039"><rdf:RDF><cc:Work
         rdf:about=""><dc:format>image/svg+xml</dc:format><dc:type
           rdf:resource="http://purl.org/dc/dcmitype/StillImage" /></cc:Work></rdf:RDF></metadata><defs
     id="defs3037"><linearGradient
       id="linearGradient3821"
       osb:paint="solid"><stop
         style="stop-color:#f0f0f0;stop-opacity:1;"
         offset="0"
         id="stop3823" /></linearGradient></defs><sodipodi:namedview
     pagecolor="#ffffff"
     bordercolor="#666666"
     borderopacity="1"
     objecttolerance="10"
     gridtolerance="10"
     guidetolerance="10"
     inkscape:pageopacity="0"
     inkscape:pageshadow="2"
     inkscape:window-width="785"
     inkscape:window-height="383"
     id="namedview3035"
     showgrid="false"
     fit-margin-top="0"
     fit-margin-left="0"
     fit-margin-right="0"
     fit-margin-bottom="0"
     inkscape:zoom="2.6074563"
     inkscape:cx="5.6443373"
     inkscape:cy="28.070214"
     inkscape:window-x="57"
     inkscape:window-y="542"
     inkscape:window-maximized="0"
     inkscape:current-layer="Layer_1" /><path
     d="m 51.557389,20.003573 -4.838719,-4.14074 0,-10.1475268 c 0,-1.571709 -1.501672,-2.857653 -3.337048,-2.857653 l -3.337048,0 c -1.835376,0 -3.337048,1.285944 -3.337048,2.857653 l 0,1.580282 -6.674095,-5.709591 C 29.122416,0.848723 28.288155,0 26.696383,0 25.104611,0 24.270349,0.848723 23.359335,1.5859972 L 1.8353763,20.003573 C 0.79421739,20.93231 0,21.609574 0,22.861227 0,24.470085 1.4416047,25.71888 3.3370478,25.71888 l 3.3370479,0 0,17.14592 c 0,1.57171 1.5016715,2.857654 3.3370483,2.857654 l 33.370478,0 c 1.835376,0 3.337048,-1.285944 3.337048,-2.857654 l 0,-17.14592 3.337048,0 c 1.895443,0 3.337047,-1.248795 3.337047,-2.857653 0,-1.251653 -0.794217,-1.928917 -1.835376,-2.857654 z"
     id="path3033"
     inkscape:connector-curvature="0"
     sodipodi:nodetypes="ccssssccsccsscsccscssc"
     style="fill:#7d7d7d;fill-opacity:1" /><text
     xml:space="preserve"
     style="font-size:37.28819656px;font-style:normal;font-weight:normal;line-height:0%;letter-spacing:0px;word-spacing:0px;fill:#e8e8e8;fill-opacity:1;stroke:none;font-family:Sans"
     x="24.781809"
     y="41.136181"
     id="text3049"
     sodipodi:linespacing="0%"
     transform="scale(1.0727255,0.93220493)"><tspan
       sodipodi:role="line"
       id="tspan3051"
       x="24.646639"
       y="41.136181"
       style="font-size:26.10173798px;font-style:normal;font-variant:normal;font-weight:normal;font-stretch:normal;text-align:center;line-height:0%;letter-spacing:-0.27033871px;text-anchor:middle;fill:#e8e8e8;fill-opacity:1;font-family:Verdana;-inkscape-font-specification:Verdana">Pi</tspan></text>
</svg>