<svg xmlns:rdf="http://www.w3.org/1999/02/22-rdf-syntax-ns#" xmlns="http://www.w3.org/2000/svg" xmlns:osb="http://www.openswatchbook.org/uri/2009/osb" xml:space="preserve" height="45.7" viewBox="0 0 53.392765 45.722454" width="53.4" version="1.1" xmlns:cc="http://creativecommons.org/ns#" xmlns:dc="http://purl.org/dc/elements/1.1/"><metadata><rdf:RDF><cc:Work rdf:about=""><dc:format>image/svg+xml</dc:format><dc:type rdf:resource="http://purl.org/dc/dcmitype/StillImage"/><dc:title/></cc:Work></rdf:RDF></metadata><defs/><path fill="#7d7d7d" d="m51.6,20-4.84-4.14,0-10.1c0-1.57-1.5-2.86-3.34-2.86h-3.34c-1.84,0-3.34,1.29-3.34,2.86v1.58l-6.67-5.71c-1.1-0.821-1.9-1.67-3.5-1.67s-2.4,0.849-3.3,1.59l-21.6,18.4c-1.05,0.9-1.84,1.6-1.84,2.9,0,1.6,1.44,2.8,3.34,2.8h3.34v17.1c0,1.57,1.5,2.86,3.34,2.86h33.4c1.84,0,3.34-1.29,3.34-2.86v-17.1h3.34c1.9,0,3.34-1.25,3.34-2.86,0-1.25-0.794-1.93-1.84-2.86z"/><text style="letter-spacing:0px;word-spacing:0px;" font-weight="normal" xml:space="preserve" transform="scale(1.0727255,0.93220493)" font-size="37.28819656px" font-style="normal" y="41.136181" x="24.781809" font-family="Sans" line-height="0%" fill="#e8e8e8"><tspan style="letter-spacing:-0.27033871px;text-anchor:middle;text-align:center;" font-weight="normal" font-size="26.10173798px" font-style="normal" line-height="0%" font-stretch="normal" font-variant="normal" y="41.136181" x="24.646639" font-family="Verdana" fill="#e8e8e8">Pi</tspan></text>
</svg>
