<?xml version="1.0" encoding="UTF-8" standalone="no"?>
<!-- Generator: Adobe Illustrator 16.0.0, SVG Export Plug-In . SVG Version: 6.00 Build 0)  -->

<svg
   xmlns:dc="http://purl.org/dc/elements/1.1/"
   xmlns:cc="http://creativecommons.org/ns#"
   xmlns:rdf="http://www.w3.org/1999/02/22-rdf-syntax-ns#"
   xmlns:svg="http://www.w3.org/2000/svg"
   xmlns="http://www.w3.org/2000/svg"
   xmlns:sodipodi="http://sodipodi.sourceforge.net/DTD/sodipodi-0.dtd"
   xmlns:inkscape="http://www.inkscape.org/namespaces/inkscape"
   version="1.1"
   id="Capa_1"
   x="0px"
   y="0px"
   width="33.687px"
   height="33.688px"
   viewBox="0 0 33.687 33.688"
   style="enable-background:new 0 0 33.687 33.688;"
   xml:space="preserve"
   inkscape:version="0.48.4 r9939"
   sodipodi:docname="timer.svg"><metadata
     id="metadata41"><rdf:RDF><cc:Work
         rdf:about=""><dc:format>image/svg+xml</dc:format><dc:type
           rdf:resource="http://purl.org/dc/dcmitype/StillImage" /></cc:Work></rdf:RDF></metadata><defs
     id="defs39" /><sodipodi:namedview
     pagecolor="#ffffff"
     bordercolor="#666666"
     borderopacity="1"
     objecttolerance="10"
     gridtolerance="10"
     guidetolerance="10"
     inkscape:pageopacity="0"
     inkscape:pageshadow="2"
     inkscape:window-width="785"
     inkscape:window-height="480"
     id="namedview37"
     showgrid="false"
     inkscape:zoom="7.0054619"
     inkscape:cx="16.8435"
     inkscape:cy="16.844"
     inkscape:window-x="67"
     inkscape:window-y="34"
     inkscape:window-maximized="0"
     inkscape:current-layer="Capa_1" /><path
     style="fill:#525252;fill-opacity:1"
     d="M20.437,13.391c0,0-5.795,1.775-6.906,2.887c-1.11,1.107-1.11,2.906,0,4.018  c1.111,1.109,2.91,1.109,4.019,0C18.659,19.184,20.437,13.391,20.437,13.391z"
     id="path3" /><path
     style="fill:#525252;fill-opacity:1"
     d="M28.157,7.232l2.978,2.979l2.552-2.555c0,0-1.693-4.225-7.658-7.656l-2.553,2.553l2.979,2.977l0,0  v0.002L25.81,6.178c-2.736-2.346-6.283-3.77-10.17-3.77C7.001,2.408,0,9.408,0,18.049c0,8.637,7.001,15.639,15.64,15.639  S31.28,26.686,31.28,18.049c0-3.889-1.426-7.436-3.769-10.17L28.157,7.232z M27.438,18.312c-0.002,0.012-0.003,0.025-0.003,0.041  h0.224c-0.124,2.779-1.203,5.383-3.078,7.436l-0.141-0.141c-0.029,0.033-0.055,0.068-0.084,0.1l-2.134-2.133l-0.669,0.67  l2.266,2.266c-2.057,1.875-4.656,2.955-7.439,3.08v-0.059c-0.075,0.006-0.146,0.014-0.223,0.018v-3.162h-0.853v3.203  c-0.425-0.02-0.841-0.068-1.255-0.131c-2.39-0.312-4.607-1.344-6.407-2.988l2.269-2.268l-0.632-0.629l-2.176,2.176  c-0.041-0.049-0.075-0.098-0.12-0.143l-0.102,0.104c-1.931-2.113-2.958-4.756-3.079-7.439h3.204v-1.037H4.026  c0-0.012,0.002-0.027,0.002-0.039H3.803c0.121-2.684,1.148-5.326,3.081-7.439l0.138,0.141c0.031-0.033,0.055-0.068,0.085-0.102  l2.134,2.139l0.671-0.672L7.645,9.037c2.054-1.877,4.66-2.955,7.438-3.078v0.059c0.072-0.006,0.148-0.016,0.222-0.02V9.16h0.853  V5.959C16.581,5.977,17,6.027,17.413,6.09c2.391,0.314,4.606,1.346,6.404,2.988l-2.264,2.264l0.631,0.633l2.172-2.176  c0.043,0.047,0.078,0.098,0.118,0.145l0.106-0.105c1.875,2.055,2.954,4.656,3.078,7.438h-3.205v1.037H27.438z"
     id="path5" /><g
     id="g7" /><g
     id="g9" /><g
     id="g11" /><g
     id="g13" /><g
     id="g15" /><g
     id="g17" /><g
     id="g19" /><g
     id="g21" /><g
     id="g23" /><g
     id="g25" /><g
     id="g27" /><g
     id="g29" /><g
     id="g31" /><g
     id="g33" /><g
     id="g35" /></svg>